<?xml version="1.0" encoding="utf-8"?>
<!-- Generator: Adobe Illustrator 18.1.1, SVG Export Plug-In . SVG Version: 6.00 Build 0)  -->
<svg version="1.1" id="Ebene_2" xmlns="http://www.w3.org/2000/svg" xmlns:xlink="http://www.w3.org/1999/xlink" x="0px" y="0px"
	 viewBox="0 0 404 120" enable-background="new 0 0 404 120" xml:space="preserve">
<g>
	<path fill="#006AB3" d="M40.8,11.4c-19,7.8-32.4,26.5-32.4,48.3c0,11.7,3.9,22.6,10.4,31.3c1.5,0.2,3,0.4,4.7,0.4
		c10.9,0,17.3-4.9,17.3-23.4V11.4z M84.4,13.3c-7.2-3.7-15.3-5.8-23.9-5.8c-2.5,0-5,0.2-7.4,0.5v60.8c0,22.6-10,31.1-23.8,32.6
		c8.7,6.5,19.5,10.4,31.2,10.4c14.6,0,27.8-6,37.3-15.7c-4.7,3-11,4.8-18.9,4.8c-8.2,0-17.2-2.5-21.7-5.6l2.9-9.1
		c4.9,3,12,5.4,19.6,5.4c11.2,0,17.8-5.8,17.8-14.4c0-8-4.5-12.6-16-16.9c-13.9-4.8-22.5-12.1-22.5-24C58.9,23.7,69,14.1,84.4,13.3
		 M112.7,59.7c0-13.3-5-25.4-13.1-34.6c-3.1-1.4-7.7-2.7-13.5-2.7c-11.6,0-16,6.9-16,12.8c0,7.8,5.2,11.7,16.9,16.3
		c14.4,5.7,21.6,12.5,21.6,25c0,1.6-0.1,3.1-0.4,4.6C111,74.5,112.7,67.3,112.7,59.7"/>
	<path fill="#006AB3" d="M99.3,114.1l-3.3-4.6c7.8-5.6,14.2-13,18.7-21.4c2.3-4.3,4-8.9,5.2-13.6c1.2-4.8,1.8-9.9,1.8-14.9
		c0-5-0.6-10.1-1.8-14.9c-1.2-4.7-2.9-9.3-5.2-13.6c-4.4-8.4-10.9-15.8-18.6-21.4l3.3-4.6c8.5,6.1,15.5,14.1,20.3,23.3
		c2.5,4.7,4.4,9.7,5.7,14.8c1.3,5.3,2,10.8,2,16.3c0,5.5-0.7,11-2,16.3c-1.3,5.1-3.2,10.1-5.7,14.8C114.8,99.9,107.8,108,99.3,114.1
		z M118.5,113.7l-4.1-3.8c12.7-13.7,19.8-31.5,19.8-50.2c0-18.6-7-36.4-19.6-50l4.1-3.8c13.6,14.7,21.1,33.8,21.1,53.8
		C139.8,79.8,132.2,99,118.5,113.7z"/>
</g>
<path fill="#58585A" d="M394.7,64.7c-0.8,0.1-1.7,0.1-2.7,0.2c-1,0.1-1.9,0.1-2.7,0.1c-2.3,0-3.9-0.7-4.8-2.1
	c-0.9-1.4-1.3-3.3-1.3-5.9v-3.4c0-2.5,0.4-4.4,1.3-5.8c0.9-1.4,2.5-2.1,4.7-2.1c0.7,0,1.6,0,2.7,0c1.1,0,2,0.1,2.8,0.3V64.7z
	 M398.8,66.7V34.1c0-0.2-0.1-0.5-0.2-0.6c-0.2-0.2-0.4-0.3-0.6-0.3h-2.4c-0.2,0-0.5,0.1-0.6,0.3c-0.2,0.2-0.3,0.4-0.3,0.6v8.7
	c-0.9-0.2-1.9-0.3-2.9-0.4c-1-0.1-1.9-0.1-2.6-0.1c-3.4,0-6,1-7.7,3c-1.7,2-2.5,4.8-2.5,8.5v3.4c0,1.7,0.2,3.3,0.6,4.7
	c0.4,1.4,1,2.6,1.9,3.6c0.8,1,1.9,1.8,3.2,2.3c1.3,0.5,2.8,0.8,4.5,0.8c1.4,0,2.9-0.1,4.3-0.2c1.4-0.1,2.9-0.3,4.3-0.6
	c0.4-0.1,0.7-0.2,0.8-0.4C398.7,67.3,398.8,67.1,398.8,66.7 M373.5,67.3V52c0-3.1-0.6-5.5-1.9-7.2c-1.3-1.7-3.4-2.5-6.2-2.5
	c-1.4,0-2.7,0.2-3.8,0.5c-1.1,0.4-2.3,0.9-3.6,1.6v-0.9c0-0.3-0.1-0.5-0.3-0.7c-0.2-0.2-0.4-0.3-0.6-0.3h-2.3
	c-0.2,0-0.5,0.1-0.6,0.3c-0.2,0.2-0.3,0.4-0.3,0.7v23.8c0,0.2,0.1,0.5,0.3,0.7c0.2,0.2,0.4,0.3,0.6,0.3h2.3c0.2,0,0.5-0.1,0.7-0.3
	c0.2-0.2,0.3-0.4,0.3-0.7V47.7c1.1-0.5,2.2-1,3.2-1.3c1.1-0.3,2.1-0.5,3.1-0.5c0.9,0,1.7,0.1,2.3,0.3c0.6,0.2,1.2,0.5,1.6,1
	c0.4,0.5,0.7,1.1,0.9,1.9c0.2,0.8,0.3,1.8,0.3,3v15.3c0,0.2,0.1,0.5,0.3,0.7c0.2,0.2,0.4,0.3,0.7,0.3h2.2c0.2,0,0.5-0.1,0.7-0.3
	C373.4,67.8,373.5,67.6,373.5,67.3 M347.5,67.3V43.5c0-0.2-0.1-0.5-0.3-0.7c-0.2-0.2-0.4-0.3-0.6-0.3h-2.3c-0.2,0-0.5,0.1-0.7,0.3
	c-0.2,0.2-0.3,0.4-0.3,0.7v19.7c-1.1,0.5-2.2,1-3.2,1.3c-1.1,0.3-2.1,0.5-3.1,0.5c-0.9,0-1.6-0.1-2.3-0.3c-0.7-0.2-1.2-0.5-1.6-1
	c-0.4-0.5-0.7-1.1-0.9-1.9c-0.2-0.8-0.3-1.8-0.3-3V43.5c0-0.2-0.1-0.5-0.3-0.7c-0.2-0.2-0.4-0.3-0.7-0.3h-2.2
	c-0.2,0-0.5,0.1-0.7,0.3c-0.2,0.2-0.3,0.4-0.3,0.7v15.4c0,3.1,0.6,5.5,1.9,7.2c1.3,1.7,3.4,2.5,6.2,2.5c1.4,0,2.7-0.2,3.8-0.5
	c1.1-0.4,2.3-0.9,3.6-1.6v0.9c0,0.3,0.1,0.5,0.3,0.7c0.2,0.2,0.4,0.3,0.6,0.3h2.3c0.2,0,0.5-0.1,0.6-0.3
	C347.4,67.8,347.5,67.6,347.5,67.3 M318.3,57.2c0,2.4-0.5,4.3-1.5,5.7c-1,1.4-2.6,2.1-4.8,2.1c-2.2,0-3.8-0.7-4.8-2.1
	c-1-1.4-1.5-3.3-1.5-5.7v-3.5c0-2.4,0.5-4.3,1.5-5.7c1-1.4,2.6-2.1,4.8-2.1c2.2,0,3.8,0.7,4.8,2.1c1,1.4,1.5,3.3,1.5,5.7V57.2z
	 M322.4,57.2v-3.5c0-1.7-0.2-3.3-0.7-4.7c-0.4-1.4-1.1-2.6-2-3.6c-0.9-1-2-1.8-3.3-2.3c-1.3-0.5-2.8-0.8-4.5-0.8
	c-1.7,0-3.2,0.3-4.5,0.8c-1.3,0.5-2.4,1.3-3.2,2.3c-0.9,1-1.5,2.2-2,3.6c-0.4,1.4-0.7,3-0.7,4.7v3.5c0,1.7,0.2,3.3,0.7,4.7
	c0.4,1.4,1.1,2.6,2,3.6c0.9,1,2,1.8,3.2,2.3c1.3,0.5,2.8,0.8,4.5,0.8c1.7,0,3.2-0.3,4.5-0.8c1.3-0.5,2.4-1.3,3.3-2.3
	c0.9-1,1.5-2.2,2-3.6C322.1,60.5,322.4,58.9,322.4,57.2 M295.8,58.2c-0.7-1.1-2.1-2.2-4-3.4l-4.6-2.8c-1.1-0.6-1.9-1.2-2.4-1.7
	c-0.5-0.5-0.8-1.1-0.8-1.8c0-1.2,0.4-1.9,1.2-2.2c0.8-0.3,1.8-0.5,3.2-0.5c1.3,0,2.6,0,4,0.1c1.4,0.1,2.4,0.2,3.2,0.2h0.1
	c0.5,0,0.8-0.3,0.8-0.8v-1.5c0-0.5-0.3-0.8-0.9-0.9c-1.1-0.2-2.2-0.3-3.5-0.4c-1.2-0.1-2.5-0.2-3.8-0.2c-1.2,0-2.3,0.1-3.4,0.3
	s-1.9,0.5-2.7,1c-0.7,0.5-1.3,1.1-1.8,1.9c-0.4,0.8-0.7,1.8-0.7,3c0,1.5,0.4,2.8,1.3,3.8c0.9,1,2,2,3.5,2.9l4.7,2.8
	c1.3,0.8,2.3,1.5,2.8,2c0.5,0.5,0.7,1.2,0.7,1.9c0,1.3-0.4,2.1-1.2,2.6c-0.8,0.5-1.9,0.7-3.5,0.7c-0.4,0-0.9,0-1.5,0
	c-0.6,0-1.3-0.1-1.9-0.1c-0.7,0-1.4-0.1-2-0.2c-0.7-0.1-1.3-0.1-1.8-0.2h-0.2c-0.2,0-0.5,0.1-0.6,0.2c-0.2,0.1-0.2,0.3-0.2,0.5V67
	c0,0.5,0.3,0.8,1,0.9c0.6,0.1,1.2,0.2,1.9,0.3c0.7,0.1,1.4,0.2,2,0.2c0.7,0.1,1.3,0.1,1.9,0.1c0.6,0,1.1,0,1.6,0
	c2.6,0,4.7-0.5,6.3-1.6c1.6-1.1,2.4-2.8,2.4-5.2C296.9,60.5,296.5,59.2,295.8,58.2 M276.2,45.1v-1.9c0-0.6-0.3-0.9-1-0.9
	c-1.1,0-2.1,0.2-3.2,0.5c-1.1,0.3-2.2,0.9-3.4,1.8v-1c0-0.3-0.1-0.5-0.3-0.7c-0.2-0.2-0.4-0.3-0.6-0.3h-2.2c-0.2,0-0.5,0.1-0.6,0.3
	c-0.2,0.2-0.3,0.4-0.3,0.7v23.8c0,0.2,0.1,0.5,0.3,0.7c0.2,0.2,0.4,0.3,0.6,0.3h2.3c0.2,0,0.5-0.1,0.7-0.3c0.2-0.2,0.3-0.4,0.3-0.7
	V47.8c1.2-0.7,2.3-1.2,3.3-1.5c1-0.3,2.1-0.4,3.2-0.4C275.9,45.9,276.2,45.6,276.2,45.1 M255,53.6h-12.4v-0.4c0-2.5,0.5-4.4,1.6-5.6
	c1.1-1.2,2.6-1.8,4.7-1.8c2.1,0,3.6,0.6,4.6,1.7c1,1.1,1.5,3,1.5,5.6V53.6z M259.1,55.7v-2.5c0-1.6-0.2-3.2-0.7-4.5
	c-0.4-1.4-1.1-2.5-1.9-3.5c-0.9-0.9-1.9-1.7-3.2-2.2c-1.3-0.5-2.8-0.8-4.5-0.8c-3.4,0-5.9,1-7.7,2.9c-1.8,2-2.7,4.6-2.7,8v4.2
	c0,2.2,0.3,4,0.9,5.4c0.6,1.4,1.4,2.6,2.4,3.4c1,0.9,2.1,1.5,3.4,1.8c1.3,0.4,2.6,0.5,3.9,0.5c1.6,0,3-0.1,4.4-0.2
	c1.3-0.1,2.7-0.3,4-0.6c0.4-0.1,0.6-0.2,0.7-0.4c0.1-0.2,0.2-0.4,0.2-0.7v-1.6c0-0.2-0.1-0.4-0.2-0.5c-0.2-0.1-0.3-0.1-0.5-0.1h-0.2
	c-1.1,0.2-2.4,0.3-3.9,0.4c-1.5,0.1-3,0.1-4.4,0.1c-2.1,0-3.8-0.6-4.9-1.7c-1.1-1.2-1.6-3.1-1.6-5.9v-0.7h15.6
	C258.8,56.7,259.1,56.4,259.1,55.7 M229.8,70.4c0,0.7-0.1,1.2-0.3,1.7c-0.2,0.5-0.5,0.9-1,1.3c-0.5,0.3-1.1,0.6-2,0.8
	c-0.8,0.2-1.9,0.3-3.3,0.3c-1.3,0-2.4-0.1-3.2-0.3c-0.9-0.2-1.5-0.5-2.1-0.8c-0.5-0.4-0.9-0.8-1.1-1.3c-0.2-0.5-0.3-1.1-0.3-1.8
	v-0.4c0-1.2,0.2-2.2,0.6-2.8c0.4-0.7,1-1.3,1.7-1.9l5.3,1.4c1.1,0.3,1.9,0.5,2.7,0.8c0.7,0.2,1.3,0.5,1.8,0.8c0.5,0.3,0.8,0.6,1,0.9
	c0.2,0.3,0.3,0.7,0.3,1.2V70.4z M229.4,51.2c0,0.7-0.1,1.3-0.3,1.9c-0.2,0.6-0.5,1.1-1,1.5c-0.5,0.4-1.1,0.7-1.9,1
	c-0.8,0.2-1.8,0.4-3.1,0.4c-1.3,0-2.4-0.2-3.2-0.5c-0.8-0.3-1.5-0.7-1.9-1.2c-0.4-0.5-0.8-1-0.9-1.5c-0.2-0.6-0.2-1.1-0.2-1.6v-0.4
	c0-0.7,0.1-1.3,0.3-1.9c0.2-0.6,0.5-1.1,0.9-1.6c0.4-0.5,1.1-0.8,1.9-1.1c0.8-0.3,1.9-0.4,3.2-0.4c1.3,0,2.3,0.1,3.1,0.4
	c0.8,0.3,1.4,0.6,1.9,1.1c0.5,0.4,0.8,1,1,1.6c0.2,0.6,0.3,1.3,0.3,2V51.2z M234.4,44.8v-1.2c0-0.3-0.1-0.5-0.3-0.7
	c-0.2-0.2-0.5-0.3-0.7-0.3h-10.2c-2,0-3.7,0.2-5,0.7c-1.3,0.5-2.4,1.1-3.2,1.9c-0.8,0.8-1.4,1.7-1.7,2.7c-0.3,1-0.5,2-0.5,3v0.4
	c0,1.2,0.2,2.2,0.5,3.1c0.4,0.9,0.9,1.7,1.6,2.3c-0.7,0.4-1.1,0.9-1.4,1.5c-0.3,0.6-0.5,1.2-0.5,1.9v0c0,0.7,0.2,1.4,0.5,2.1
	c0.3,0.7,0.9,1.2,1.6,1.5l0.3,0.1c-0.8,0.6-1.5,1.4-2.1,2.4c-0.6,1-0.9,2.2-0.9,3.5v0.4c0,2.3,0.9,4.1,2.6,5.4c1.7,1.3,4.4,2,8.1,2
	c3.8,0,6.6-0.6,8.2-1.9c1.6-1.3,2.5-3.1,2.5-5.3V70c0-1.1-0.2-2-0.7-2.8c-0.5-0.7-1.2-1.4-2-1.9c-0.8-0.5-1.8-0.9-2.9-1.3
	c-1.1-0.3-2.2-0.7-3.3-0.9l-7-1.8c-0.5-0.2-0.9-0.3-1.1-0.6c-0.2-0.2-0.3-0.5-0.3-0.9c0-0.7,0.4-1.2,1.2-1.6
	c0.7,0.3,1.4,0.5,2.3,0.7c0.8,0.2,1.9,0.3,3.1,0.3c3.6,0,6.2-0.7,7.9-2.1c1.6-1.4,2.5-3.3,2.5-5.9v-0.4c0-1.3-0.2-2.3-0.5-3
	c-0.3-0.7-0.7-1.3-1.1-1.8l1.7-0.3c0.2-0.1,0.5-0.1,0.6-0.3C234.4,45.4,234.4,45.2,234.4,44.8 M203.5,53.6h-12.4v-0.4
	c0-2.5,0.5-4.4,1.6-5.6c1.1-1.2,2.6-1.8,4.7-1.8c2.1,0,3.6,0.6,4.6,1.7c1,1.1,1.5,3,1.5,5.6V53.6z M207.6,55.7v-2.5
	c0-1.6-0.2-3.2-0.7-4.5c-0.4-1.4-1.1-2.5-1.9-3.5c-0.9-0.9-1.9-1.7-3.2-2.2c-1.3-0.5-2.8-0.8-4.5-0.8c-3.4,0-5.9,1-7.7,2.9
	c-1.8,2-2.7,4.6-2.7,8v4.2c0,2.2,0.3,4,0.9,5.4c0.6,1.4,1.4,2.6,2.4,3.4c1,0.9,2.1,1.5,3.4,1.8c1.3,0.4,2.6,0.5,3.9,0.5
	c1.6,0,3-0.1,4.4-0.2c1.3-0.1,2.7-0.3,4-0.6c0.4-0.1,0.6-0.2,0.7-0.4c0.1-0.2,0.2-0.4,0.2-0.7v-1.6c0-0.2-0.1-0.4-0.2-0.5
	c-0.2-0.1-0.3-0.1-0.5-0.1h-0.2c-1.1,0.2-2.4,0.3-3.9,0.4c-1.5,0.1-3,0.1-4.4,0.1c-2.1,0-3.8-0.6-4.9-1.7c-1.1-1.2-1.6-3.1-1.6-5.9
	v-0.7h15.6C207.3,56.7,207.6,56.4,207.6,55.7 M177.3,63.4c-1.1,0.6-2.2,1.1-3.2,1.4c-1,0.3-2,0.5-3.1,0.5c-1.4,0-2.4-0.3-3.2-0.9
	c-0.7-0.6-1.1-1.7-1.1-3.4v-0.6c0-0.8,0.1-1.5,0.3-2.1c0.2-0.6,0.6-1,1.1-1.4c0.5-0.4,1.3-0.6,2.2-0.8c0.9-0.2,2.1-0.3,3.5-0.3h3.5
	V63.4z M181.4,67.3V51.1c0-2.8-0.7-4.9-2.1-6.5c-1.4-1.5-3.7-2.3-7-2.3c-1.6,0-2.9,0.1-4.1,0.2c-1.1,0.1-2.2,0.3-3.2,0.4
	c-0.7,0.1-1,0.4-1,0.9v1.6c0,0.3,0.1,0.5,0.3,0.6c0.2,0.1,0.4,0.1,0.6,0.1h0.2c0.9-0.1,2-0.2,3.1-0.3c1.2-0.1,2.5-0.1,4-0.1
	c1.8,0,3.1,0.4,3.9,1.2c0.7,0.8,1.1,2.1,1.1,4.1v1.9h-3.5c-2.1,0-3.8,0.2-5.3,0.5c-1.4,0.3-2.6,0.8-3.5,1.4
	c-0.9,0.6-1.5,1.4-1.9,2.4c-0.4,0.9-0.6,2-0.6,3.3V61c0,1.5,0.2,2.7,0.6,3.6c0.4,1,1,1.7,1.7,2.3c0.7,0.6,1.5,1,2.4,1.2
	c0.9,0.2,1.9,0.4,2.9,0.4c1.3,0,2.6-0.2,3.7-0.7c1.2-0.4,2.3-1,3.5-1.6v1c0,0.2,0.1,0.5,0.3,0.7c0.2,0.2,0.4,0.3,0.7,0.3h2.1
	c0.2,0,0.5-0.1,0.7-0.3C181.4,67.8,181.4,67.6,181.4,67.3 M156.7,71.3V43.5c0-0.2-0.1-0.5-0.2-0.7c-0.2-0.2-0.4-0.3-0.6-0.3h-2.4
	c-0.2,0-0.5,0.1-0.6,0.3c-0.2,0.2-0.2,0.4-0.2,0.7v27.7c0,1.2-0.1,2-0.4,2.3c-0.3,0.4-0.9,0.6-1.8,0.6h-1.9c-0.7,0-1,0.2-1,0.7v1.7
	c0,0.4,0.3,0.7,0.8,0.7c0.5,0.1,0.9,0.1,1.3,0.1c0.4,0,0.8,0,1.3,0c0.9,0,1.8-0.1,2.5-0.3c0.7-0.2,1.3-0.5,1.8-1
	c0.5-0.5,0.9-1.1,1.1-1.9C156.5,73.5,156.7,72.5,156.7,71.3 M156.7,37.6v-3.8c0-0.2-0.1-0.5-0.3-0.7c-0.2-0.2-0.4-0.3-0.7-0.3h-2.4
	c-0.2,0-0.5,0.1-0.7,0.3c-0.2,0.2-0.3,0.4-0.3,0.7v3.8c0,0.2,0.1,0.5,0.3,0.6c0.2,0.2,0.4,0.3,0.7,0.3h2.4c0.2,0,0.5-0.1,0.7-0.3
	C156.7,38.1,156.7,37.9,156.7,37.6"/>
<path fill="#58585A" d="M398.9,96.1V96c0-0.2-0.1-0.2-0.4-0.2h-0.8c-0.4,0-0.7-0.1-0.9-0.2c-0.2-0.1-0.3-0.5-0.3-1v-7h2.1
	c0.2,0,0.3-0.1,0.3-0.3v-0.2c0-0.2-0.1-0.3-0.3-0.3h-2.1V85c0-0.1,0-0.2-0.1-0.2c0-0.1-0.1-0.1-0.2-0.1H396c-0.1,0-0.2,0-0.2,0.1
	c-0.1,0.1-0.1,0.1-0.1,0.2v1.8h-1.7c-0.2,0-0.3,0.1-0.3,0.3v0.2c0,0.2,0.1,0.3,0.3,0.3h1.7v7c0,0.4,0,0.7,0.1,0.9s0.2,0.4,0.4,0.6
	c0.2,0.1,0.4,0.2,0.6,0.3c0.2,0.1,0.5,0.1,0.8,0.1c0.2,0,0.3,0,0.5,0c0.2,0,0.3,0,0.4,0c0.1,0,0.2-0.1,0.2-0.1
	C398.9,96.2,398.9,96.2,398.9,96.1 M391.7,96v-5.8c0-0.5-0.1-1-0.2-1.4c-0.1-0.4-0.3-0.8-0.6-1.1c-0.3-0.3-0.6-0.5-1-0.7
	c-0.4-0.2-1-0.2-1.6-0.2c-0.4,0-0.8,0-1.2,0.1c-0.4,0.1-0.8,0.1-1.2,0.2v-3.5c0-0.1,0-0.2-0.1-0.2c-0.1-0.1-0.1-0.1-0.2-0.1h-0.2
	c-0.1,0-0.2,0-0.2,0.1c-0.1,0.1-0.1,0.1-0.1,0.2V96c0,0.1,0,0.2,0.1,0.2c0.1,0.1,0.1,0.1,0.2,0.1h0.2c0.1,0,0.2,0,0.2-0.1
	c0.1-0.1,0.1-0.1,0.1-0.2v-8.2c0.3-0.1,0.7-0.2,1.2-0.2c0.4-0.1,0.8-0.1,1.2-0.1c0.9,0,1.6,0.2,2,0.7c0.4,0.5,0.6,1.1,0.6,2V96
	c0,0.1,0,0.2,0.1,0.2c0,0.1,0.1,0.1,0.2,0.1h0.2c0.1,0,0.2,0,0.2-0.1C391.7,96.2,391.7,96.1,391.7,96 M383.2,96v-0.1
	c0-0.2-0.1-0.2-0.3-0.2h-0.1c-0.8,0.1-1.5,0.2-2.1,0.2c-0.5,0-0.9-0.1-1.3-0.3c-0.3-0.2-0.6-0.4-0.8-0.7c-0.2-0.3-0.4-0.7-0.5-1.1
	c-0.1-0.4-0.1-0.9-0.1-1.5V91c0-0.5,0-1,0.1-1.4c0.1-0.4,0.2-0.8,0.5-1.1c0.2-0.3,0.5-0.6,0.8-0.7c0.3-0.2,0.8-0.2,1.3-0.2
	c0.6,0,1.3,0.1,2.1,0.2h0.1c0.2,0,0.3-0.1,0.3-0.2v-0.1c0-0.1,0-0.2-0.1-0.2c0,0-0.1-0.1-0.3-0.1c-0.4,0-0.8-0.1-1.1-0.1
	c-0.4,0-0.7,0-1,0c-0.6,0-1.2,0.1-1.6,0.3c-0.4,0.2-0.8,0.5-1.1,0.9c-0.3,0.4-0.5,0.8-0.6,1.3c-0.1,0.5-0.2,1.1-0.2,1.7v1.2
	c0,0.6,0.1,1.1,0.2,1.6c0.1,0.5,0.3,1,0.6,1.4c0.3,0.4,0.6,0.7,1.1,0.9c0.4,0.2,1,0.3,1.6,0.3c0.3,0,0.6,0,1,0
	c0.4,0,0.8-0.1,1.1-0.1c0.1,0,0.2-0.1,0.3-0.1C383.2,96.1,383.2,96.1,383.2,96 M374.8,96v-8.8c0-0.1,0-0.2-0.1-0.2
	c-0.1-0.1-0.1-0.1-0.2-0.1h-0.1c-0.1,0-0.2,0-0.2,0.1c-0.1,0.1-0.1,0.1-0.1,0.2V96c0,0.1,0,0.2,0.1,0.2c0.1,0.1,0.1,0.1,0.2,0.1h0.1
	c0.1,0,0.2,0,0.2-0.1C374.8,96.2,374.8,96.1,374.8,96 M374.8,84.8v-1.3c0-0.1,0-0.2-0.1-0.2c-0.1-0.1-0.1-0.1-0.2-0.1h-0.1
	c-0.1,0-0.2,0-0.2,0.1c-0.1,0.1-0.1,0.1-0.1,0.2v1.3c0,0.1,0,0.2,0.1,0.2c0.1,0.1,0.1,0.1,0.2,0.1h0.1c0.1,0,0.2,0,0.2-0.1
	C374.8,84.9,374.8,84.9,374.8,84.8 M372,96v-0.1c0-0.2-0.1-0.3-0.3-0.3h-4c-0.2,0-0.4,0-0.6,0c-0.2,0-0.3-0.1-0.4-0.2
	c-0.1-0.1-0.2-0.2-0.3-0.4c-0.1-0.2-0.1-0.4-0.1-0.7V83.5c0-0.1,0-0.2-0.1-0.2c-0.1-0.1-0.1-0.1-0.2-0.1h-0.2c-0.1,0-0.2,0-0.2,0.1
	c-0.1,0.1-0.1,0.1-0.1,0.2v10.8c0,0.7,0.2,1.3,0.6,1.5c0.4,0.3,0.9,0.4,1.6,0.4h4C371.9,96.3,372,96.2,372,96 M358.7,99.5V83.5
	c0-0.1,0-0.2-0.1-0.2c-0.1-0.1-0.1-0.1-0.2-0.1h-0.2c-0.1,0-0.2,0-0.2,0.1c-0.1,0.1-0.1,0.1-0.1,0.2v15.9c0,0.1,0,0.2,0.1,0.2
	c0.1,0.1,0.1,0.1,0.2,0.1h0.2c0.1,0,0.2,0,0.2-0.1C358.7,99.6,358.7,99.5,358.7,99.5 M351.7,95.9l-4.3-4.6l4.3-4
	c0.1-0.1,0.1-0.2,0.1-0.3c0-0.1,0-0.2-0.1-0.2c-0.1-0.1-0.2-0.1-0.3-0.1c-0.2,0-0.3,0.1-0.4,0.2l-4.3,4.1v-7.4c0-0.1,0-0.2-0.1-0.2
	c-0.1-0.1-0.1-0.1-0.2-0.1h-0.1c-0.1,0-0.2,0-0.2,0.1c-0.1,0.1-0.1,0.1-0.1,0.2V96c0,0.1,0,0.2,0.1,0.2c0.1,0.1,0.1,0.1,0.2,0.1h0.1
	c0.1,0,0.2,0,0.2-0.1c0.1-0.1,0.1-0.1,0.1-0.2v-4.3l4.3,4.6c0.1,0.1,0.2,0.2,0.3,0.2c0.1,0,0.2,0,0.3,0c0.2,0,0.3-0.1,0.3-0.3
	C351.8,96.1,351.8,96,351.7,95.9 M343.3,96v-8.8c0-0.1,0-0.2-0.1-0.2c-0.1-0.1-0.1-0.1-0.2-0.1h-0.1c-0.1,0-0.2,0-0.2,0.1
	c-0.1,0.1-0.1,0.1-0.1,0.2V96c0,0.1,0,0.2,0.1,0.2c0.1,0.1,0.1,0.1,0.2,0.1h0.1c0.1,0,0.2,0,0.2-0.1C343.2,96.2,343.3,96.1,343.3,96
	 M343.3,84.8v-1.3c0-0.1,0-0.2-0.1-0.2c-0.1-0.1-0.1-0.1-0.2-0.1h-0.1c-0.1,0-0.2,0-0.2,0.1c-0.1,0.1-0.1,0.1-0.1,0.2v1.3
	c0,0.1,0,0.2,0.1,0.2c0.1,0.1,0.1,0.1,0.2,0.1h0.1c0.1,0,0.2,0,0.2-0.1C343.2,84.9,343.3,84.9,343.3,84.8 M339.9,96v-5.9
	c0-0.6-0.1-1.1-0.2-1.6c-0.2-0.4-0.4-0.8-0.7-1c-0.3-0.3-0.6-0.5-1-0.6c-0.4-0.1-0.8-0.2-1.2-0.2c-0.5,0-0.9,0.1-1.4,0.2
	c-0.5,0.1-1,0.3-1.4,0.5v-0.3c0-0.1,0-0.2-0.1-0.2c-0.1-0.1-0.1-0.1-0.2-0.1h-0.1c-0.1,0-0.2,0-0.2,0.1c-0.1,0.1-0.1,0.2-0.1,0.2V96
	c0,0.1,0,0.2,0.1,0.2c0.1,0.1,0.1,0.1,0.2,0.1h0.1c0.1,0,0.2,0,0.2-0.1c0.1-0.1,0.1-0.1,0.1-0.2v-7.8c0.4-0.2,0.9-0.4,1.4-0.5
	c0.5-0.1,0.9-0.2,1.4-0.2c0.3,0,0.6,0,0.9,0.1c0.3,0.1,0.5,0.2,0.8,0.5c0.2,0.2,0.4,0.5,0.5,0.8c0.1,0.3,0.2,0.8,0.2,1.3V96
	c0,0.1,0,0.2,0.1,0.2c0.1,0.1,0.1,0.1,0.2,0.1h0.1c0.1,0,0.2,0,0.2-0.1C339.8,96.2,339.9,96.1,339.9,96 M330.7,96v-5.8
	c0-0.5-0.1-1-0.2-1.4c-0.1-0.4-0.3-0.8-0.6-1.1c-0.3-0.3-0.6-0.5-1-0.7c-0.4-0.2-1-0.2-1.6-0.2c-0.4,0-0.8,0-1.2,0.1
	c-0.4,0.1-0.8,0.1-1.2,0.2v-3.5c0-0.1,0-0.2-0.1-0.2c-0.1-0.1-0.1-0.1-0.2-0.1h-0.2c-0.1,0-0.2,0-0.2,0.1c-0.1,0.1-0.1,0.1-0.1,0.2
	V96c0,0.1,0,0.2,0.1,0.2c0.1,0.1,0.1,0.1,0.2,0.1h0.2c0.1,0,0.2,0,0.2-0.1c0.1-0.1,0.1-0.1,0.1-0.2v-8.2c0.3-0.1,0.7-0.2,1.2-0.2
	c0.4-0.1,0.8-0.1,1.2-0.1c0.9,0,1.6,0.2,2,0.7c0.4,0.5,0.6,1.1,0.6,2V96c0,0.1,0,0.2,0.1,0.2c0,0.1,0.1,0.1,0.2,0.1h0.2
	c0.1,0,0.2,0,0.2-0.1C330.7,96.2,330.7,96.1,330.7,96 M322.2,96v-0.1c0-0.2-0.1-0.2-0.3-0.2h-0.1c-0.8,0.1-1.5,0.2-2.1,0.2
	c-0.5,0-0.9-0.1-1.3-0.3c-0.3-0.2-0.6-0.4-0.8-0.7c-0.2-0.3-0.4-0.7-0.5-1.1c-0.1-0.4-0.1-0.9-0.1-1.5V91c0-0.5,0-1,0.1-1.4
	c0.1-0.4,0.2-0.8,0.5-1.1c0.2-0.3,0.5-0.6,0.8-0.7c0.3-0.2,0.8-0.2,1.3-0.2c0.6,0,1.3,0.1,2.1,0.2h0.1c0.2,0,0.3-0.1,0.3-0.2v-0.1
	c0-0.1,0-0.2-0.1-0.2c0,0-0.1-0.1-0.3-0.1c-0.4,0-0.8-0.1-1.1-0.1c-0.4,0-0.7,0-1,0c-0.6,0-1.2,0.1-1.6,0.3
	c-0.4,0.2-0.8,0.5-1.1,0.9c-0.3,0.4-0.5,0.8-0.6,1.3c-0.1,0.5-0.2,1.1-0.2,1.7v1.2c0,0.6,0.1,1.1,0.2,1.6c0.1,0.5,0.3,1,0.6,1.4
	c0.3,0.4,0.6,0.7,1.1,0.9c0.4,0.2,1,0.3,1.6,0.3c0.3,0,0.6,0,1,0c0.4,0,0.8-0.1,1.1-0.1c0.1,0,0.2-0.1,0.3-0.1
	C322.2,96.1,322.2,96.1,322.2,96 M313.5,91.1H308V91c0-0.5,0.1-1,0.2-1.4c0.1-0.4,0.3-0.8,0.5-1.1c0.2-0.3,0.5-0.6,0.9-0.7
	c0.3-0.2,0.8-0.3,1.3-0.3c1,0,1.7,0.3,2.1,0.9c0.4,0.6,0.6,1.5,0.6,2.6V91.1z M314.3,91.4V91c0-0.6-0.1-1.2-0.2-1.7
	c-0.1-0.5-0.3-1-0.6-1.3c-0.3-0.4-0.7-0.7-1.1-0.9c-0.4-0.2-1-0.3-1.6-0.3c-0.6,0-1.1,0.1-1.5,0.3c-0.4,0.2-0.8,0.5-1.1,0.9
	c-0.3,0.4-0.5,0.8-0.7,1.3c-0.2,0.5-0.2,1.1-0.2,1.7v1.2c0,0.8,0.1,1.5,0.3,2.1c0.2,0.6,0.5,1,0.9,1.3c0.4,0.3,0.8,0.6,1.3,0.7
	c0.5,0.1,1,0.2,1.5,0.2c0.4,0,0.8,0,1.3-0.1c0.5-0.1,0.9-0.1,1.3-0.2c0.1,0,0.2-0.1,0.3-0.1c0-0.1,0.1-0.1,0.1-0.2v-0.1
	c0-0.1,0-0.2-0.1-0.2c-0.1,0-0.1-0.1-0.2-0.1c0,0,0,0-0.1,0c0,0,0,0-0.1,0c-0.4,0.1-0.9,0.2-1.3,0.2c-0.5,0.1-0.9,0.1-1.3,0.1
	c-0.4,0-0.8,0-1.2-0.2c-0.4-0.1-0.7-0.3-1-0.5c-0.3-0.3-0.5-0.6-0.7-1.1c-0.2-0.5-0.2-1.1-0.2-1.8v-0.4h6c0.1,0,0.2,0,0.2-0.1
	C314.2,91.6,314.3,91.5,314.3,91.4 M305.5,96.1V96c0-0.2-0.1-0.2-0.4-0.2h-0.8c-0.4,0-0.7-0.1-0.9-0.2c-0.2-0.1-0.3-0.5-0.3-1v-7
	h2.1c0.2,0,0.3-0.1,0.3-0.3v-0.2c0-0.2-0.1-0.3-0.3-0.3h-2.1V85c0-0.1,0-0.2-0.1-0.2c0-0.1-0.1-0.1-0.2-0.1h-0.2
	c-0.1,0-0.2,0-0.2,0.1c-0.1,0.1-0.1,0.1-0.1,0.2v1.8h-1.7c-0.2,0-0.3,0.1-0.3,0.3v0.2c0,0.2,0.1,0.3,0.3,0.3h1.7v7
	c0,0.4,0,0.7,0.1,0.9s0.2,0.4,0.4,0.6c0.2,0.1,0.4,0.2,0.6,0.3c0.2,0.1,0.5,0.1,0.8,0.1c0.2,0,0.3,0,0.5,0c0.2,0,0.3,0,0.4,0
	c0.1,0,0.2-0.1,0.2-0.1C305.5,96.2,305.5,96.2,305.5,96.1 M298.5,93.2c-0.1-0.2-0.2-0.4-0.4-0.6c-0.2-0.2-0.4-0.4-0.7-0.6
	c-0.3-0.2-0.6-0.4-1-0.6l-1.2-0.7c-0.5-0.3-1-0.6-1.3-0.9c-0.3-0.3-0.5-0.6-0.5-1c0-0.3,0-0.6,0.2-0.8c0.1-0.2,0.2-0.3,0.4-0.5
	c0.2-0.1,0.4-0.2,0.6-0.2c0.2,0,0.5-0.1,0.8-0.1c0.5,0,1,0,1.4,0.1c0.5,0.1,0.8,0.1,1,0.1h0.1c0.1,0,0.2,0,0.2-0.1
	c0.1,0,0.1-0.1,0.1-0.2v-0.1c0-0.2-0.1-0.3-0.4-0.3c-0.3,0-0.6-0.1-1-0.1c-0.4,0-0.9-0.1-1.5-0.1c-0.4,0-0.7,0-1,0.1
	c-0.3,0.1-0.6,0.2-0.9,0.4c-0.2,0.2-0.4,0.4-0.6,0.7c-0.2,0.3-0.2,0.6-0.2,1c0,0.3,0,0.6,0.2,0.8c0.1,0.2,0.2,0.5,0.4,0.6
	c0.2,0.2,0.4,0.4,0.7,0.5c0.3,0.2,0.6,0.3,0.9,0.5l1.1,0.6c0.4,0.2,0.7,0.4,0.9,0.5c0.2,0.2,0.4,0.3,0.6,0.5
	c0.1,0.1,0.2,0.3,0.3,0.4c0.1,0.1,0.1,0.3,0.1,0.5c0,0.4-0.1,0.6-0.2,0.9c-0.1,0.2-0.3,0.4-0.5,0.5c-0.2,0.1-0.4,0.2-0.7,0.3
	c-0.3,0-0.6,0.1-0.9,0.1c-0.4,0-0.8,0-1.3-0.1c-0.5-0.1-0.9-0.1-1.3-0.2h-0.1c-0.2,0-0.3,0.1-0.3,0.2v0.2c0,0.1,0.1,0.2,0.4,0.3
	c0.2,0,0.4,0.1,0.6,0.1c0.2,0,0.4,0.1,0.7,0.1c0.2,0,0.5,0,0.7,0.1c0.2,0,0.4,0,0.6,0c0.4,0,0.8,0,1.2-0.1c0.4-0.1,0.7-0.2,1-0.4
	c0.3-0.2,0.5-0.4,0.7-0.8c0.2-0.3,0.2-0.7,0.2-1.2C298.6,93.7,298.6,93.4,298.5,93.2 M290,97.1c0,0.3,0,0.6-0.1,0.9
	c-0.1,0.3-0.2,0.5-0.5,0.7c-0.2,0.2-0.5,0.3-0.9,0.4c-0.4,0.1-0.9,0.1-1.5,0.1c-0.6,0-1-0.1-1.4-0.2c-0.4-0.1-0.7-0.2-0.9-0.4
	c-0.2-0.2-0.4-0.4-0.5-0.7c-0.1-0.3-0.1-0.5-0.1-0.9v-0.2c0-0.6,0.1-1.1,0.4-1.4c0.2-0.4,0.5-0.7,0.9-0.9l2.4,0.6
	c0.5,0.1,0.8,0.2,1.1,0.3c0.3,0.1,0.5,0.2,0.7,0.3c0.2,0.1,0.3,0.3,0.3,0.4c0.1,0.2,0.1,0.4,0.1,0.6V97.1z M289.9,89.9
	c0,0.3,0,0.6-0.1,0.9c-0.1,0.3-0.2,0.5-0.4,0.7c-0.2,0.2-0.5,0.4-0.9,0.5c-0.4,0.1-0.8,0.2-1.4,0.2c-0.6,0-1.1-0.1-1.5-0.2
	c-0.4-0.1-0.7-0.3-0.9-0.6c-0.2-0.2-0.3-0.5-0.4-0.7c-0.1-0.3-0.1-0.5-0.1-0.7v-0.1c0-0.3,0-0.6,0.1-0.8c0.1-0.3,0.2-0.5,0.4-0.7
	c0.2-0.2,0.5-0.4,0.9-0.5c0.4-0.1,0.9-0.2,1.5-0.2c0.6,0,1,0.1,1.4,0.2c0.4,0.1,0.7,0.3,0.9,0.5c0.2,0.2,0.4,0.4,0.5,0.7
	c0.1,0.3,0.1,0.6,0.1,0.9V89.9z M290.9,87.3v-0.2c0-0.1,0-0.2-0.1-0.2c-0.1,0-0.1-0.1-0.2-0.1H287c-0.8,0-1.4,0.1-1.8,0.3
	c-0.5,0.2-0.8,0.4-1.1,0.7c-0.3,0.3-0.4,0.6-0.5,0.9c-0.1,0.3-0.1,0.7-0.1,1v0.1c0,0.5,0.1,0.9,0.2,1.2c0.2,0.3,0.4,0.6,0.7,0.9
	c-0.3,0.1-0.4,0.3-0.6,0.5c-0.1,0.2-0.2,0.4-0.2,0.6c0,0.3,0.1,0.5,0.2,0.7c0.1,0.2,0.4,0.4,0.7,0.5l0.1,0c-0.1,0.1-0.3,0.2-0.5,0.4
	c-0.2,0.2-0.3,0.4-0.4,0.6c-0.1,0.2-0.2,0.5-0.3,0.7c-0.1,0.3-0.1,0.6-0.1,0.9v0.2c0,0.4,0.1,0.8,0.2,1.1c0.1,0.3,0.4,0.6,0.7,0.9
	c0.3,0.2,0.7,0.4,1.2,0.6c0.5,0.1,1,0.2,1.7,0.2c0.7,0,1.3-0.1,1.8-0.2c0.5-0.1,0.9-0.3,1.2-0.6c0.3-0.2,0.5-0.5,0.6-0.9
	c0.1-0.3,0.2-0.7,0.2-1.1v-0.2c0-0.4-0.1-0.7-0.2-0.9c-0.1-0.2-0.3-0.5-0.5-0.6c-0.2-0.2-0.5-0.3-0.9-0.5c-0.4-0.1-0.8-0.3-1.2-0.4
	l-3.2-0.8c-0.2-0.1-0.3-0.1-0.4-0.2c-0.1-0.1-0.1-0.2-0.1-0.3c0-0.2,0.1-0.3,0.2-0.5c0.1-0.1,0.3-0.2,0.4-0.3c0.3,0.1,0.7,0.2,1,0.3
	c0.3,0.1,0.7,0.1,1.2,0.1c0.7,0,1.3-0.1,1.7-0.2c0.5-0.1,0.8-0.3,1.1-0.6c0.3-0.3,0.5-0.6,0.6-0.9c0.1-0.3,0.2-0.7,0.2-1.2v-0.1
	c0-0.3,0-0.6-0.1-0.8c-0.1-0.2-0.2-0.5-0.2-0.6c-0.1-0.2-0.2-0.3-0.3-0.4c-0.1-0.1-0.2-0.2-0.3-0.3h0.9c0.1,0,0.2,0,0.2-0.1
	C290.9,87.5,290.9,87.4,290.9,87.3 M281,96v-5.9c0-0.6-0.1-1.1-0.2-1.6c-0.2-0.4-0.4-0.8-0.7-1c-0.3-0.3-0.6-0.5-1-0.6
	c-0.4-0.1-0.8-0.2-1.2-0.2c-0.5,0-0.9,0.1-1.4,0.2c-0.5,0.1-1,0.3-1.4,0.5v-0.3c0-0.1,0-0.2-0.1-0.2c-0.1-0.1-0.1-0.1-0.2-0.1h-0.1
	c-0.1,0-0.2,0-0.2,0.1c-0.1,0.1-0.1,0.2-0.1,0.2V96c0,0.1,0,0.2,0.1,0.2c0.1,0.1,0.1,0.1,0.2,0.1h0.1c0.1,0,0.2,0,0.2-0.1
	c0.1-0.1,0.1-0.1,0.1-0.2v-7.8c0.4-0.2,0.9-0.4,1.4-0.5c0.5-0.1,0.9-0.2,1.4-0.2c0.3,0,0.6,0,0.9,0.1c0.3,0.1,0.5,0.2,0.8,0.5
	c0.2,0.2,0.4,0.5,0.5,0.8c0.1,0.3,0.2,0.8,0.2,1.3V96c0,0.1,0,0.2,0.1,0.2c0.1,0.1,0.1,0.1,0.2,0.1h0.1c0.1,0,0.2,0,0.2-0.1
	C281,96.2,281,96.1,281,96 M271.8,96v-8.8c0-0.1,0-0.2-0.1-0.2c-0.1-0.1-0.1-0.1-0.2-0.1h-0.1c-0.1,0-0.2,0-0.2,0.1
	c-0.1,0.1-0.1,0.1-0.1,0.2V95c-0.4,0.2-0.9,0.4-1.4,0.5c-0.5,0.1-0.9,0.2-1.4,0.2h0c-0.3,0-0.6,0-0.9-0.1c-0.3-0.1-0.5-0.2-0.7-0.5
	c-0.2-0.2-0.4-0.5-0.5-0.8c-0.1-0.3-0.2-0.8-0.2-1.3v-5.9c0-0.1,0-0.2-0.1-0.2c-0.1-0.1-0.1-0.1-0.2-0.1h-0.1c-0.1,0-0.2,0-0.2,0.1
	c-0.1,0.1-0.1,0.1-0.1,0.2v5.9c0,0.6,0.1,1.1,0.2,1.6c0.2,0.4,0.4,0.8,0.7,1c0.3,0.3,0.6,0.5,1,0.6c0.4,0.1,0.8,0.2,1.2,0.2
	c0.5,0,0.9-0.1,1.4-0.2c0.5-0.1,1-0.3,1.4-0.5V96c0,0.1,0,0.2,0.1,0.2c0.1,0.1,0.1,0.1,0.2,0.1h0.1c0.1,0,0.2,0,0.2-0.1
	C271.8,96.2,271.8,96.1,271.8,96 M263.2,96.1V96c0-0.2-0.1-0.2-0.4-0.2h-0.8c-0.4,0-0.7-0.1-0.9-0.2c-0.2-0.1-0.3-0.5-0.3-1v-7h2.1
	c0.2,0,0.3-0.1,0.3-0.3v-0.2c0-0.2-0.1-0.3-0.3-0.3h-2.1V85c0-0.1,0-0.2-0.1-0.2c0-0.1-0.1-0.1-0.2-0.1h-0.2c-0.1,0-0.2,0-0.2,0.1
	c-0.1,0.1-0.1,0.1-0.1,0.2v1.8h-1.7c-0.2,0-0.3,0.1-0.3,0.3v0.2c0,0.2,0.1,0.3,0.3,0.3h1.7v7c0,0.4,0,0.7,0.1,0.9
	c0.1,0.2,0.2,0.4,0.4,0.6c0.2,0.1,0.4,0.2,0.6,0.3c0.2,0.1,0.5,0.1,0.8,0.1c0.2,0,0.3,0,0.5,0c0.2,0,0.3,0,0.4,0
	c0.1,0,0.2-0.1,0.2-0.1C263.1,96.2,263.2,96.2,263.2,96.1 M255.7,96V83.5c0-0.1,0-0.2-0.1-0.2c-0.1-0.1-0.1-0.1-0.2-0.1h-0.2
	c-0.1,0-0.2,0-0.2,0.1c-0.1,0.1-0.1,0.1-0.1,0.2V96c0,0.1,0,0.2,0.1,0.2c0.1,0.1,0.1,0.1,0.2,0.1h0.2c0.1,0,0.2,0,0.2-0.1
	C255.7,96.2,255.7,96.1,255.7,96 M251.5,94.9c-0.6,0.3-1.1,0.5-1.6,0.7c-0.5,0.1-0.9,0.2-1.4,0.2c-0.3,0-0.5,0-0.7-0.1
	c-0.2-0.1-0.4-0.2-0.6-0.4c-0.2-0.2-0.3-0.4-0.4-0.7c-0.1-0.3-0.2-0.6-0.2-1v-0.2c0-0.4,0.1-0.7,0.2-1c0.1-0.3,0.3-0.5,0.6-0.6
	c0.3-0.2,0.7-0.3,1.1-0.3c0.5-0.1,1-0.1,1.7-0.1h1.4V94.9z M252.3,96v-6c0-0.5,0-0.9-0.1-1.3c-0.1-0.4-0.2-0.7-0.5-1
	c-0.2-0.3-0.5-0.5-0.9-0.7c-0.4-0.2-0.9-0.2-1.5-0.2c-0.3,0-0.6,0-0.8,0c-0.2,0-0.4,0-0.6,0c-0.2,0-0.4,0-0.6,0.1
	c-0.2,0-0.4,0-0.5,0.1c-0.3,0-0.4,0.1-0.4,0.3v0.1c0,0.1,0,0.2,0.1,0.2c0.1,0,0.1,0.1,0.2,0.1h0.1c0.2,0,0.4,0,0.6-0.1
	c0.2,0,0.4,0,0.5-0.1c0.2,0,0.4,0,0.6,0c0.2,0,0.5,0,0.8,0c0.4,0,0.8,0,1.1,0.1c0.3,0.1,0.5,0.2,0.7,0.5c0.2,0.2,0.3,0.5,0.4,0.8
	c0.1,0.3,0.1,0.7,0.1,1.2v0.6h-1.4c-0.8,0-1.5,0.1-2,0.2c-0.6,0.1-1,0.3-1.4,0.5c-0.3,0.2-0.6,0.5-0.8,0.8c-0.2,0.3-0.2,0.7-0.2,1.2
	v0.2c0,0.6,0.1,1,0.2,1.4c0.2,0.4,0.4,0.7,0.6,0.9c0.3,0.2,0.5,0.4,0.9,0.5c0.3,0.1,0.7,0.1,1,0.1c0.6,0,1.1-0.1,1.6-0.3
	c0.5-0.2,1-0.4,1.4-0.6V96c0,0.1,0,0.2,0.1,0.2c0.1,0.1,0.2,0.1,0.2,0.1h0.1c0.1,0,0.2,0,0.2-0.1C252.3,96.2,252.3,96.1,252.3,96
	 M244.2,96.1V96c0-0.2-0.1-0.2-0.4-0.2H243c-0.4,0-0.7-0.1-0.9-0.2c-0.2-0.1-0.3-0.5-0.3-1v-7h2.1c0.2,0,0.3-0.1,0.3-0.3v-0.2
	c0-0.2-0.1-0.3-0.3-0.3h-2.1V85c0-0.1,0-0.2-0.1-0.2c0-0.1-0.1-0.1-0.2-0.1h-0.2c-0.1,0-0.2,0-0.2,0.1c-0.1,0.1-0.1,0.1-0.1,0.2v1.8
	h-1.7c-0.2,0-0.3,0.1-0.3,0.3v0.2c0,0.2,0.1,0.3,0.3,0.3h1.7v7c0,0.4,0,0.7,0.1,0.9s0.2,0.4,0.4,0.6c0.2,0.1,0.4,0.2,0.6,0.3
	c0.2,0.1,0.5,0.1,0.8,0.1c0.2,0,0.3,0,0.5,0c0.2,0,0.3,0,0.4,0c0.1,0,0.2-0.1,0.2-0.1C244.2,96.2,244.2,96.2,244.2,96.1 M237.2,93.2
	c-0.1-0.2-0.2-0.4-0.4-0.6c-0.2-0.2-0.4-0.4-0.7-0.6c-0.3-0.2-0.6-0.4-1-0.6l-1.2-0.7c-0.5-0.3-1-0.6-1.3-0.9
	c-0.3-0.3-0.5-0.6-0.5-1c0-0.3,0-0.6,0.2-0.8c0.1-0.2,0.2-0.3,0.4-0.5c0.2-0.1,0.4-0.2,0.6-0.2c0.2,0,0.5-0.1,0.8-0.1
	c0.5,0,1,0,1.4,0.1c0.5,0.1,0.8,0.1,1,0.1h0.1c0.1,0,0.2,0,0.2-0.1c0.1,0,0.1-0.1,0.1-0.2v-0.1c0-0.2-0.1-0.3-0.4-0.3
	c-0.3,0-0.6-0.1-1-0.1c-0.4,0-0.9-0.1-1.5-0.1c-0.4,0-0.7,0-1,0.1c-0.3,0.1-0.6,0.2-0.9,0.4c-0.2,0.2-0.4,0.4-0.6,0.7
	c-0.2,0.3-0.2,0.6-0.2,1c0,0.3,0,0.6,0.2,0.8c0.1,0.2,0.2,0.5,0.4,0.6c0.2,0.2,0.4,0.4,0.7,0.5c0.3,0.2,0.6,0.3,0.9,0.5l1.1,0.6
	c0.4,0.2,0.7,0.4,0.9,0.5c0.2,0.2,0.4,0.3,0.6,0.5c0.1,0.1,0.2,0.3,0.3,0.4c0.1,0.1,0.1,0.3,0.1,0.5c0,0.4-0.1,0.6-0.2,0.9
	c-0.1,0.2-0.3,0.4-0.5,0.5c-0.2,0.1-0.4,0.2-0.7,0.3c-0.3,0-0.6,0.1-0.9,0.1c-0.4,0-0.8,0-1.3-0.1c-0.5-0.1-0.9-0.1-1.3-0.2h-0.1
	c-0.2,0-0.3,0.1-0.3,0.2v0.2c0,0.1,0.1,0.2,0.4,0.3c0.2,0,0.4,0.1,0.6,0.1c0.2,0,0.4,0.1,0.7,0.1c0.2,0,0.5,0,0.7,0.1
	c0.2,0,0.4,0,0.6,0c0.4,0,0.8,0,1.2-0.1c0.4-0.1,0.7-0.2,1-0.4c0.3-0.2,0.5-0.4,0.7-0.8c0.2-0.3,0.2-0.7,0.2-1.2
	C237.3,93.7,237.3,93.4,237.2,93.2 M229.2,96v-5.9c0-0.6-0.1-1.1-0.2-1.6c-0.2-0.4-0.4-0.8-0.7-1c-0.3-0.3-0.6-0.5-1-0.6
	c-0.4-0.1-0.8-0.2-1.2-0.2c-0.5,0-0.9,0.1-1.4,0.2c-0.5,0.1-1,0.3-1.4,0.5v-0.3c0-0.1,0-0.2-0.1-0.2c-0.1-0.1-0.1-0.1-0.2-0.1h-0.1
	c-0.1,0-0.2,0-0.2,0.1c-0.1,0.1-0.1,0.2-0.1,0.2V96c0,0.1,0,0.2,0.1,0.2c0.1,0.1,0.1,0.1,0.2,0.1h0.1c0.1,0,0.2,0,0.2-0.1
	c0.1-0.1,0.1-0.1,0.1-0.2v-7.8c0.4-0.2,0.9-0.4,1.4-0.5c0.5-0.1,0.9-0.2,1.4-0.2c0.3,0,0.6,0,0.9,0.1c0.3,0.1,0.5,0.2,0.8,0.5
	c0.2,0.2,0.4,0.5,0.5,0.8c0.1,0.3,0.2,0.8,0.2,1.3V96c0,0.1,0,0.2,0.1,0.2c0.1,0.1,0.1,0.1,0.2,0.1h0.1c0.1,0,0.2,0,0.2-0.1
	C229.2,96.2,229.2,96.1,229.2,96 M219.2,94.9c-0.6,0.3-1.1,0.5-1.6,0.7c-0.5,0.1-0.9,0.2-1.4,0.2c-0.3,0-0.5,0-0.7-0.1
	c-0.2-0.1-0.4-0.2-0.6-0.4c-0.2-0.2-0.3-0.4-0.4-0.7c-0.1-0.3-0.2-0.6-0.2-1v-0.2c0-0.4,0.1-0.7,0.2-1c0.1-0.3,0.3-0.5,0.6-0.6
	c0.3-0.2,0.7-0.3,1.1-0.3c0.5-0.1,1-0.1,1.7-0.1h1.4V94.9z M220,96v-6c0-0.5,0-0.9-0.1-1.3c-0.1-0.4-0.2-0.7-0.5-1
	c-0.2-0.3-0.5-0.5-0.9-0.7c-0.4-0.2-0.9-0.2-1.5-0.2c-0.3,0-0.6,0-0.8,0c-0.2,0-0.4,0-0.6,0c-0.2,0-0.4,0-0.6,0.1
	c-0.2,0-0.4,0-0.5,0.1c-0.3,0-0.4,0.1-0.4,0.3v0.1c0,0.1,0,0.2,0.1,0.2c0.1,0,0.1,0.1,0.2,0.1h0.1c0.2,0,0.4,0,0.6-0.1
	c0.2,0,0.4,0,0.5-0.1c0.2,0,0.4,0,0.6,0c0.2,0,0.5,0,0.8,0c0.4,0,0.8,0,1.1,0.1c0.3,0.1,0.5,0.2,0.7,0.5c0.2,0.2,0.3,0.5,0.4,0.8
	c0.1,0.3,0.1,0.7,0.1,1.2v0.6h-1.4c-0.8,0-1.5,0.1-2,0.2c-0.6,0.1-1,0.3-1.4,0.5c-0.3,0.2-0.6,0.5-0.8,0.8c-0.2,0.3-0.2,0.7-0.2,1.2
	v0.2c0,0.6,0.1,1,0.2,1.4c0.2,0.4,0.4,0.7,0.6,0.9c0.3,0.2,0.5,0.4,0.9,0.5c0.3,0.1,0.7,0.1,1,0.1c0.6,0,1.1-0.1,1.6-0.3
	c0.5-0.2,1-0.4,1.4-0.6V96c0,0.1,0,0.2,0.1,0.2c0.1,0.1,0.2,0.1,0.2,0.1h0.1c0.1,0,0.2,0,0.2-0.1C220,96.2,220,96.1,220,96
	 M212.1,87.2V87c0-0.1,0-0.2-0.1-0.2c-0.1,0-0.2-0.1-0.3-0.1c-0.4,0-0.8,0.1-1.2,0.2c-0.4,0.1-0.8,0.3-1.2,0.6v-0.4
	c0-0.1,0-0.2-0.1-0.2c-0.1-0.1-0.1-0.1-0.2-0.1h-0.1c-0.1,0-0.2,0-0.2,0.1c-0.1,0.1-0.1,0.2-0.1,0.2V96c0,0.1,0,0.2,0.1,0.2
	c0.1,0.1,0.1,0.1,0.2,0.1h0.1c0.1,0,0.2,0,0.2-0.1c0.1-0.1,0.1-0.1,0.1-0.2v-7.7c0.5-0.3,1-0.5,1.4-0.7c0.4-0.1,0.7-0.2,1.1-0.2
	c0.1,0,0.3,0,0.3-0.1C212.1,87.4,212.1,87.3,212.1,87.2 M205.4,91.1h-5.5V91c0-0.5,0.1-1,0.2-1.4c0.1-0.4,0.3-0.8,0.5-1.1
	c0.2-0.3,0.5-0.6,0.9-0.7c0.3-0.2,0.8-0.3,1.3-0.3c1,0,1.7,0.3,2.1,0.9c0.4,0.6,0.6,1.5,0.6,2.6V91.1z M206.2,91.4V91
	c0-0.6-0.1-1.2-0.2-1.7c-0.1-0.5-0.3-1-0.6-1.3c-0.3-0.4-0.7-0.7-1.1-0.9c-0.4-0.2-1-0.3-1.6-0.3c-0.6,0-1.1,0.1-1.5,0.3
	c-0.4,0.2-0.8,0.5-1.1,0.9c-0.3,0.4-0.5,0.8-0.7,1.3c-0.2,0.5-0.2,1.1-0.2,1.7v1.2c0,0.8,0.1,1.5,0.3,2.1c0.2,0.6,0.5,1,0.9,1.3
	c0.4,0.3,0.8,0.6,1.3,0.7c0.5,0.1,1,0.2,1.5,0.2c0.4,0,0.8,0,1.3-0.1c0.5-0.1,0.9-0.1,1.3-0.2c0.1,0,0.2-0.1,0.3-0.1
	c0-0.1,0.1-0.1,0.1-0.2v-0.1c0-0.1,0-0.2-0.1-0.2c-0.1,0-0.1-0.1-0.2-0.1c0,0,0,0-0.1,0c0,0,0,0-0.1,0c-0.4,0.1-0.9,0.2-1.3,0.2
	c-0.5,0.1-0.9,0.1-1.3,0.1c-0.4,0-0.8,0-1.2-0.2c-0.4-0.1-0.7-0.3-1-0.5c-0.3-0.3-0.5-0.6-0.7-1.1c-0.2-0.5-0.2-1.1-0.2-1.8v-0.4h6
	c0.1,0,0.2,0,0.2-0.1C206.2,91.6,206.2,91.5,206.2,91.4 M197.3,83.3c-0.1-0.1-0.1-0.1-0.2-0.1h-0.2c-0.1,0-0.2,0.1-0.3,0.2L193,95.4
	c0,0.1-0.1,0.2-0.2,0.3c-0.1,0-0.1,0.1-0.2,0.1c-0.1,0-0.2,0-0.2-0.1c-0.1,0-0.1-0.1-0.2-0.3l-3.6-11.9c0-0.2-0.1-0.2-0.3-0.2h-0.2
	c-0.1,0-0.2,0-0.2,0.1c-0.1,0.1-0.1,0.1-0.1,0.2c0,0.1,0,0.1,0,0.1l3.6,11.9c0.1,0.3,0.2,0.5,0.4,0.7c0.2,0.1,0.4,0.2,0.7,0.2
	c0.3,0,0.5-0.1,0.7-0.2c0.2-0.1,0.3-0.4,0.4-0.7l3.6-11.9c0,0,0-0.1,0-0.1C197.4,83.4,197.3,83.4,197.3,83.3 M181.6,99.5V83.5
	c0-0.1,0-0.2-0.1-0.2c-0.1-0.1-0.1-0.1-0.2-0.1h-0.2c-0.1,0-0.2,0-0.2,0.1c-0.1,0.1-0.1,0.1-0.1,0.2v15.9c0,0.1,0,0.2,0.1,0.2
	c0.1,0.1,0.1,0.1,0.2,0.1h0.2c0.1,0,0.2,0,0.2-0.1C181.6,99.6,181.6,99.5,181.6,99.5 M174.2,96v-5.9c0-0.6-0.1-1.1-0.2-1.6
	c-0.2-0.4-0.4-0.8-0.7-1c-0.3-0.3-0.6-0.5-1-0.6c-0.4-0.1-0.8-0.2-1.2-0.2c-0.5,0-0.9,0.1-1.4,0.2c-0.5,0.1-1,0.3-1.4,0.5v-0.3
	c0-0.1,0-0.2-0.1-0.2c-0.1-0.1-0.1-0.1-0.2-0.1h-0.1c-0.1,0-0.2,0-0.2,0.1c-0.1,0.1-0.1,0.2-0.1,0.2V96c0,0.1,0,0.2,0.1,0.2
	c0.1,0.1,0.1,0.1,0.2,0.1h0.1c0.1,0,0.2,0,0.2-0.1c0.1-0.1,0.1-0.1,0.1-0.2v-7.8c0.4-0.2,0.9-0.4,1.4-0.5c0.5-0.1,0.9-0.2,1.4-0.2
	c0.3,0,0.6,0,0.9,0.1c0.3,0.1,0.5,0.2,0.8,0.5c0.2,0.2,0.4,0.5,0.5,0.8c0.1,0.3,0.2,0.8,0.2,1.3V96c0,0.1,0,0.2,0.1,0.2
	c0.1,0.1,0.1,0.1,0.2,0.1h0.1c0.1,0,0.2,0,0.2-0.1C174.2,96.2,174.2,96.1,174.2,96 M164.5,92.2c0,1.1-0.2,1.9-0.7,2.6
	c-0.4,0.6-1.2,1-2.2,1c-1,0-1.8-0.3-2.2-1c-0.4-0.6-0.7-1.5-0.7-2.6V91c0-1.1,0.2-1.9,0.7-2.6c0.4-0.6,1.2-1,2.2-1
	c1,0,1.8,0.3,2.2,1c0.4,0.6,0.7,1.5,0.7,2.6V92.2z M165.3,92.2V91c0-1.3-0.3-2.4-0.9-3.1c-0.6-0.7-1.5-1.1-2.7-1.1
	c-1.2,0-2.1,0.4-2.7,1.1c-0.6,0.7-0.9,1.8-0.9,3.1v1.2c0,1.3,0.3,2.4,0.9,3.1c0.6,0.7,1.5,1.1,2.7,1.1c1.2,0,2.1-0.4,2.7-1.1
	C165,94.6,165.3,93.6,165.3,92.2 M156.5,83.7v-0.2c0-0.2-0.1-0.3-0.3-0.3h-8.4c-0.2,0-0.3,0.1-0.3,0.3v0.2c0,0.2,0.1,0.3,0.3,0.3
	h3.8V96c0,0.1,0,0.2,0.1,0.2c0.1,0.1,0.1,0.1,0.2,0.1h0.2c0.1,0,0.2,0,0.2-0.1c0.1-0.1,0.1-0.1,0.1-0.2V83.9h3.8
	C156.4,83.9,156.5,83.8,156.5,83.7"/>
</svg>
