<?xml version="1.0" encoding="utf-8"?>
<!-- Generator: Adobe Illustrator 18.1.1, SVG Export Plug-In . SVG Version: 6.00 Build 0)  -->
<svg version="1.1" xmlns="http://www.w3.org/2000/svg" xmlns:xlink="http://www.w3.org/1999/xlink" x="0px" y="0px"
	 viewBox="0 0 1450 541" enable-background="new 0 0 1450 541" xml:space="preserve">
<g id="Ebene_1">
</g>
<g id="Music_Notes">
</g>
<g id="Equalizator_Buttons">
</g>
<g id="Play_Button_Arrowhead">
</g>
<g id="Microphone_For_A_Singer_Or_A_Conference">
</g>
<g id="Speaker">
</g>
<g id="Musical_Disc_And_Dj_Hand">
	<rect x="0.5" y="0" fill="#0267B2" width="1449.5" height="541"/>
	<g opacity="0.1">
		<g>
			<path d="M85.2,60.1l-4.8-16.7c-0.3-1-1.3-1.6-2.3-1.3l-14.8,4.3c-1,0.3-1.6,1.3-1.3,2.3l4.3,14.8c-0.8,0-1.7,0.2-2.5,0.5
				c-2.9,1.2-4.3,4.3-3.2,6.9c1.1,2.6,4.3,3.7,7.2,2.4c2.8-1.2,4-4.1,3.3-6.6l-5-17.3l11.2-3.2l3,10.5c-0.8,0-1.7,0.2-2.5,0.5
				c-2.9,1.2-4.3,4.3-3.2,6.9c1.1,2.6,4.3,3.7,7.2,2.4C84.6,65.5,85.9,62.7,85.2,60.1z"/>
		</g>
	</g>
	<g opacity="0.1">
		<g>
			<path d="M170,75.8l2.4-11.2l-2.5-0.5l-2.4,11.2c-1.5,0.2-2.7,1.3-3,2.9c-0.3,1.5,0.4,3,1.6,3.8l-2.4,11.2l2.5,0.5l2.4-11.2
				c1.5-0.2,2.7-1.3,3-2.9C172,78.1,171.3,76.6,170,75.8z"/>
		</g>
		<g>
			<path d="M182.8,72.9L184,67l-2.5-0.5l-1.2,5.8c-1.5,0.2-2.7,1.3-3,2.9c-0.3,1.5,0.4,3,1.6,3.8l-3.5,16.6l2.5,0.5l3.5-16.6
				c1.5-0.2,2.7-1.3,3-2.9C184.7,75.2,184,73.7,182.8,72.9z"/>
		</g>
		<g>
			<path d="M194.1,88c0.3-1.5-0.4-3-1.6-3.8l3.1-14.7l-2.5-0.5l-3.1,14.7c-1.5,0.2-2.7,1.3-3,2.9c-0.3,1.5,0.4,3,1.6,3.8l-1.7,7.7
				l2.5,0.5l1.7-7.7C192.5,90.7,193.7,89.6,194.1,88z"/>
		</g>
	</g>
	<g opacity="0.1">
		<g>
			<path d="M586.8,130.7l2.4-11.2l-2.5-0.5l-2.4,11.2c-1.5,0.2-2.7,1.3-3,2.9c-0.3,1.5,0.4,3,1.6,3.8l-2.4,11.2l2.5,0.5l2.4-11.2
				c1.5-0.2,2.7-1.3,3-2.9C588.7,133,588.1,131.5,586.8,130.7z"/>
		</g>
		<g>
			<path d="M599.5,127.8l1.2-5.8l-2.5-0.5l-1.2,5.8c-1.5,0.2-2.7,1.3-3,2.9c-0.3,1.5,0.4,3,1.6,3.8l-3.5,16.6l2.5,0.5l3.5-16.6
				c1.5-0.2,2.7-1.3,3-2.9S600.8,128.6,599.5,127.8z"/>
		</g>
		<g>
			<path d="M610.8,143c0.3-1.5-0.4-3-1.6-3.8l3.1-14.7l-2.5-0.5l-3.1,14.7c-1.5,0.2-2.7,1.3-3,2.9c-0.3,1.5,0.4,3,1.6,3.8l-1.7,7.7
				l2.5,0.5l1.7-7.7C609.3,145.6,610.5,144.5,610.8,143z"/>
		</g>
	</g>
	<g opacity="0.1">
		<path d="M50.6,188.9c-2.7-0.2-3.9,1.5-2.8,4l8.3,17.9c1.1,2.4,3.3,2.6,4.8,0.4L72.4,195c1.5-2.2,0.6-4.1-2-4.4L50.6,188.9z"/>
	</g>
	<g opacity="0.1">
		<path d="M206.7,162c-1.9-3-5.8-4-8.9-2.4c0,0,0.1,0.8,0.3,1.4c0,0,0,0.1,0,0.1c0.4,1.6,1.2,3.4,2.3,5.2c1.3,2.1,2.8,3.8,4.3,4.9
			C207.8,169.1,208.6,165.1,206.7,162z M206,166.7c0.1-0.2,0.4-0.2,0.6,0c0.2,0.2,0,0.6,0,0.6c0,0,0,0.1,0,0.1
			c-0.1,0.1-0.4,0.1-0.5,0C205.8,167.2,206,166.8,206,166.7z M206.3,169.5c-0.2,0.2-0.4,0.2-0.5,0.1c-0.1-0.1,0-0.5,0.1-0.6
			c0.2-0.2,0.4-0.2,0.5-0.1C206.4,169,206.4,169.4,206.3,169.5z M207.4,166.5c-0.1,0.1-0.3,0-0.4-0.2c-0.1-0.1,0-0.5,0-0.6
			c0.1-0.1,0.3,0,0.4,0.2C207.5,166.1,207.5,166.5,207.4,166.5z M206.9,163.8c0.1-0.1,0.3,0,0.4,0.2c0.1,0.1,0.1,0.5,0,0.6
			c-0.1,0.1-0.3,0-0.4-0.2C206.9,164.3,206.8,163.9,206.9,163.8z M206.7,165.2c-0.2,0.1-0.4,0-0.5-0.2c-0.1-0.1-0.1-0.6,0-0.6
			c0.2-0.1,0.4,0,0.5,0.2C206.8,164.6,206.8,165.1,206.7,165.2z M206.1,162c0.1-0.1,0.3,0.1,0.4,0.3c0.1,0.1,0.1,0.6,0.1,0.6
			c-0.1,0.1-0.3-0.1-0.4-0.3C206.1,162.5,206.1,162.1,206.1,162z M205.9,162.8c0.1,0.1,0.1,0.6,0,0.7c-0.2,0.1-0.4,0-0.5-0.2
			c-0.1-0.1-0.1-0.6,0-0.7C205.5,162.5,205.7,162.6,205.9,162.8z M204.6,163.5c0.1,0.1,0,0.6-0.1,0.7c-0.2,0.1-0.4,0-0.6-0.2
			c-0.1-0.1,0-0.6,0.1-0.7C204.2,163.2,204.5,163.3,204.6,163.5z M203.2,159.5c0.1-0.1,0.3,0,0.4,0.1c0.1,0.2,0.1,0.4-0.1,0.5
			c-0.1,0.1-0.3,0-0.4-0.1C203,159.8,203,159.6,203.2,159.5z M199.7,159.7c-0.1,0.1-0.3,0.1-0.4,0.1c-0.1,0-0.2,0-0.2-0.1
			c-0.1-0.1,0-0.3,0.2-0.5c0.1-0.1,0.3-0.1,0.4-0.1c0.1,0,0.2,0,0.2,0.1C200,159.4,199.9,159.6,199.7,159.7z M200.8,161.1
			c-0.2,0.1-0.5,0.1-0.6-0.1c-0.1-0.1,0.1-0.6,0.2-0.7c0.2-0.1,0.5-0.1,0.6,0.1C201,160.6,200.9,161,200.8,161.1z M201.3,159.4
			c-0.2,0-0.4-0.1-0.4-0.3c0-0.1,0.1-0.2,0.3-0.2c0.2,0,0.4,0.1,0.4,0.3C201.6,159.3,201.5,159.4,201.3,159.4z M201.7,163.2
			c-0.2,0.1-0.5,0-0.6-0.2c-0.1-0.1,0-0.7,0.1-0.7c0.2-0.1,0.5,0,0.6,0.2C201.9,162.6,201.8,163.1,201.7,163.2z M202.3,160.3
			c-0.2,0.2-0.4,0.2-0.6,0c-0.1-0.1,0-0.6,0.1-0.6c0.2-0.1,0.4-0.2,0.5,0C202.5,159.8,202.4,160.2,202.3,160.3z M202.9,165.3
			c-0.2,0.1-0.5,0-0.6-0.2c-0.1-0.1,0-0.7,0.1-0.8c0.2-0.1,0.5,0,0.6,0.2C203.1,164.7,203,165.2,202.9,165.3z M203.3,162.3
			c-0.2,0.1-0.4,0-0.6-0.2c-0.1-0.1,0-0.6,0.1-0.7c0.2-0.1,0.4,0,0.6,0.2C203.5,161.7,203.5,162.2,203.3,162.3z M204.1,160.7
			c0.2-0.1,0.4,0,0.5,0.2c0.1,0.1,0,0.6,0,0.6c-0.2,0.1-0.4,0-0.5-0.2C204,161.2,204,160.7,204.1,160.7z M204.2,166.9
			c-0.2,0.1-0.5,0-0.6-0.2c-0.1-0.1,0-0.7,0.1-0.7c0.2-0.1,0.5,0,0.6,0.2C204.4,166.3,204.3,166.9,204.2,166.9z M205.1,161.1
			c-0.1-0.1-0.1-0.5,0-0.5c0.1-0.1,0.3,0,0.4,0.2c0.1,0.1,0.1,0.5,0,0.5C205.4,161.4,205.2,161.3,205.1,161.1z M205,165.1
			c0.2-0.1,0.4,0,0.6,0.2c0.1,0.1,0,0.6-0.1,0.7c-0.2,0.1-0.4,0-0.6-0.2C204.9,165.7,204.9,165.1,205,165.1z M204.7,168.5
			c-0.1-0.1,0-0.6,0.1-0.7c0.2-0.1,0.5-0.1,0.6,0.1c0.1,0.1,0,0.6-0.1,0.7C205.1,168.8,204.9,168.7,204.7,168.5z"/>
		<path d="M203.8,171.7c-1.4-1.1-2.9-2.8-4.1-4.8c-1.5-2.4-2.4-4.8-2.7-6.7c-1.4,1.1-2.3,2.6-2.6,4.3c0.3,1.4,0.9,2.9,1.8,4.4
			c0.7,1.2,1.6,2.2,2.5,3c0.2,0.1,0.3,0.1,0.5,0.2c0,0,0,0,0,0l0,0C200.7,172.4,202.3,172.3,203.8,171.7z"/>
		<path d="M179.9,198.1c-0.2,1.6,3.3,3.3,7.8,3.9c4.5,0.6,8.4-0.2,8.6-1.8c0.2-1.5-2.8-3.1-6.9-3.8l2.5-19.7l2.3-1.4
			c0.2-0.1,0.3-0.4,0.3-0.7l3.3-1.8c-1-0.9-1.9-1.9-2.7-3.2c-1-1.6-1.6-3.2-1.9-4.7l-3.5,2.4c-0.1,0-0.3,0-0.4,0l-4.3,2.7
			c-0.2,0.1-0.3,0.4-0.2,0.8l-2.2,1.5c-1.2,0.8-1.7,2.3-1,3.5l1.4,2.3c0.7,1.1,2.3,1.4,3.5,0.7l2.2-1.2c0.1,0.1,0.2,0.2,0.3,0.2
			l-2.4,18.2C183,195.9,180,196.7,179.9,198.1z"/>
	</g>
	<g opacity="0.1">
		<g>
			<circle cx="339.4" cy="29.8" r="2.5"/>
			<path d="M335.8,43.3c-2.8-0.7-5.7,0.9-6.4,3.7c-0.7,2.8,0.9,5.7,3.7,6.4c2.8,0.7,5.7-0.9,6.4-3.7C340.3,46.9,338.6,44,335.8,43.3
				z"/>
			<path d="M350.2,19.5l-15.1-4c-4.5-1.2-9.1,1.5-10.3,6l-7.4,28c-1.2,4.5,1.5,9.1,6,10.3l15.1,4c4.5,1.2,9.1-1.5,10.3-6l7.4-28
				C357.4,25.3,354.7,20.7,350.2,19.5z M340.8,24.4c2.9,0.8,4.7,3.8,3.9,6.7c-0.8,2.9-3.8,4.7-6.7,3.9c-2.9-0.8-4.7-3.8-3.9-6.7
				C334.8,25.4,337.9,23.6,340.8,24.4z M331.9,58.2c-5.5-1.4-8.7-7-7.3-12.5s7-8.7,12.5-7.3c5.5,1.4,8.7,7,7.3,12.5
				C342.9,56.4,337.4,59.7,331.9,58.2z"/>
		</g>
	</g>
	<g opacity="0.1">
		<g>
			<path d="M318.5,147.5c-6,2.3-9.1,9-6.8,15c2.3,6,9,9.1,15,6.8c0.1,0,0.2-0.1,0.3-0.1l-1.1-0.6c0,0-1.1-0.8-0.1-2.5
				c0.7-1.2,2.4-1,3.3-0.8l-1.9-5.2c-0.5,1.3-1.5,2.3-2.8,2.8c-2.5,0.9-5.3-0.3-6.2-2.8c-0.9-2.5,0.3-5.3,2.8-6.2
				c2.3-0.9,4.9,0.2,6,2.4c0.2-0.1,0.3-0.2,0.5-0.3c0.4-0.1,0.8-0.1,1.1,0l-0.2-0.6c-0.3-0.9,0.1-1.9,1-2.3c0.9-0.3,1.8,0.1,2.2,0.9
				c0.2-0.3,0.5-0.6,0.9-0.7c0.1-0.1,0.3-0.1,0.4-0.1C330.3,147.8,324.1,145.4,318.5,147.5z M320.3,152.3c-3.3,1.2-5,4.9-3.8,8.3
				c0.1,0.2,0,0.5-0.3,0.6c-0.2,0.1-0.5,0-0.6-0.3c-1.4-3.8,0.5-8,4.3-9.5c0.2-0.1,0.5,0,0.6,0.3C320.7,152,320.6,152.2,320.3,152.3
				z M319.4,149.9c-4.7,1.8-7.1,7-5.3,11.7c0.1,0.2,0,0.5-0.3,0.6c-0.2,0.1-0.5,0-0.6-0.3c-1.9-5.2,0.7-10.9,5.9-12.9
				c0.2-0.1,0.5,0,0.6,0.3C319.8,149.5,319.7,149.8,319.4,149.9z"/>
			<path d="M321.1,158.9c0.3,0.8,1.2,1.3,2.1,0.9c0.8-0.3,1.3-1.2,0.9-2.1c-0.3-0.8-1.2-1.3-2.1-0.9
				C321.2,157.2,320.8,158.1,321.1,158.9z"/>
			<path d="M335,156.7l-0.9-2.3c-0.1-0.4-0.5-0.6-0.9-0.7c-0.2,0-0.4,0-0.5,0.1c-0.6,0.2-0.8,0.8-0.6,1.4l1.9,5l-0.3,0.1l-0.3,0.1
				l-1.9-5l-0.4-1.1c-0.2-0.6-0.8-0.8-1.4-0.6c-0.6,0.2-0.8,0.8-0.6,1.4l0.7,1.9l1.6,4.3l0,0l-0.6,0.2l-1.6-4.3
				c-0.2-0.6-0.8-0.8-1.4-0.6c-0.2,0.1-0.4,0.2-0.5,0.4c-0.2,0.3-0.3,0.7-0.1,1l0.3,0.9l2.8,7.5l-0.7-0.3c0,0-2.5-0.9-3.2,0.3
				c-0.6,1.1-0.2,1.5-0.1,1.6l1.5,0.8l4,2.1l10.2-3.8l-4.3-11.4c-0.2-0.6-0.8-0.8-1.4-0.6c-0.6,0.2-0.8,0.8-0.6,1.4l1,2.7l-0.6,0.2
				l0,0L335,156.7L335,156.7z"/>
		</g>
	</g>
	<g opacity="0.1">
		<g>
			<path d="M112.8,449.7l2.4-11.2l-2.5-0.5l-2.4,11.2c-1.5,0.2-2.7,1.3-3,2.9c-0.3,1.5,0.4,3,1.6,3.8l-2.4,11.2l2.5,0.5l2.4-11.2
				c1.5-0.2,2.7-1.3,3-2.9C114.7,452,114.1,450.5,112.8,449.7z"/>
		</g>
		<g>
			<path d="M125.5,446.7l1.2-5.8l-2.5-0.5l-1.2,5.8c-1.5,0.2-2.7,1.3-3,2.9c-0.3,1.5,0.4,3,1.6,3.8l-3.5,16.6l2.5,0.5l3.5-16.6
				c1.5-0.2,2.7-1.3,3-2.9C127.5,449.1,126.8,447.5,125.5,446.7z"/>
		</g>
		<g>
			<path d="M136.8,461.9c0.3-1.5-0.4-3-1.6-3.8l3.1-14.7l-2.5-0.5l-3.1,14.7c-1.5,0.2-2.7,1.3-3,2.9c-0.3,1.5,0.4,3,1.6,3.8
				l-1.7,7.7l2.5,0.5l1.7-7.7C135.3,464.5,136.5,463.4,136.8,461.9z"/>
		</g>
	</g>
	<g opacity="0.1">
		<path d="M149.5,535.9c-1.9-3-5.8-4-8.9-2.4c0,0,0.1,0.8,0.3,1.4c0,0,0,0.1,0,0.1c0.4,1.6,1.2,3.4,2.3,5.2c1.3,2.1,2.8,3.8,4.3,4.9
			C150.5,543,151.4,538.9,149.5,535.9z M148.8,540.6c0.1-0.2,0.4-0.2,0.6,0c0.2,0.2,0,0.6,0,0.6c0,0,0,0.1,0,0.1
			c-0.1,0.1-0.4,0.1-0.5,0C148.6,541.1,148.7,540.6,148.8,540.6z M149,543.4c-0.2,0.2-0.4,0.2-0.5,0.1c-0.1-0.1,0-0.5,0.1-0.6
			c0.2-0.2,0.4-0.2,0.5-0.1C149.2,542.9,149.1,543.3,149,543.4z M150.1,540.4c-0.1,0.1-0.3,0-0.4-0.2c-0.1-0.1,0-0.5,0-0.6
			c0.1-0.1,0.3,0,0.4,0.2C150.2,540,150.2,540.4,150.1,540.4z M149.7,537.7c0.1-0.1,0.3,0,0.4,0.2c0.1,0.1,0.1,0.5,0,0.6
			c-0.1,0.1-0.3,0-0.4-0.2C149.7,538.2,149.6,537.8,149.7,537.7z M149.5,539c-0.2,0.1-0.4,0-0.5-0.2c-0.1-0.1-0.1-0.6,0-0.6
			c0.2-0.1,0.4,0,0.5,0.2C149.6,538.5,149.6,539,149.5,539z M148.9,535.9c0.1-0.1,0.3,0.1,0.4,0.3c0.1,0.1,0.1,0.6,0.1,0.6
			c-0.1,0.1-0.3-0.1-0.4-0.3C148.9,536.4,148.8,535.9,148.9,535.9z M148.6,536.7c0.1,0.1,0.1,0.6,0,0.7c-0.2,0.1-0.4,0-0.5-0.2
			c-0.1-0.1-0.1-0.6,0-0.7C148.3,536.4,148.5,536.5,148.6,536.7z M147.4,537.4c0.1,0.1,0,0.6-0.1,0.7c-0.2,0.1-0.4,0-0.6-0.2
			c-0.1-0.1,0-0.6,0.1-0.7C147,537.1,147.3,537.2,147.4,537.4z M146,533.4c0.1-0.1,0.3,0,0.4,0.1c0.1,0.2,0.1,0.4-0.1,0.5
			c-0.1,0.1-0.3,0-0.4-0.1C145.8,533.6,145.8,533.4,146,533.4z M142.5,533.6c-0.1,0.1-0.3,0.1-0.4,0.1c-0.1,0-0.2,0-0.2-0.1
			c-0.1-0.1,0-0.3,0.2-0.5c0.1-0.1,0.3-0.1,0.4-0.1c0.1,0,0.2,0,0.2,0.1C142.8,533.2,142.7,533.4,142.5,533.6z M143.5,535
			c-0.2,0.1-0.5,0.1-0.6-0.1c-0.1-0.1,0.1-0.6,0.2-0.7c0.2-0.1,0.5-0.1,0.6,0.1C143.8,534.4,143.6,534.9,143.5,535z M144,533.3
			c-0.2,0-0.4-0.1-0.4-0.3c0-0.1,0.1-0.2,0.3-0.2c0.2,0,0.4,0.1,0.4,0.3C144.4,533.2,144.2,533.3,144,533.3z M144.5,537.1
			c-0.2,0.1-0.5,0-0.6-0.2c-0.1-0.1,0-0.7,0.1-0.7c0.2-0.1,0.5,0,0.6,0.2C144.7,536.4,144.6,537,144.5,537.1z M145,534.2
			c-0.2,0.2-0.4,0.2-0.6,0c-0.1-0.1,0-0.6,0.1-0.6c0.2-0.1,0.4-0.2,0.5,0C145.3,533.7,145.1,534.1,145,534.2z M145.7,539.2
			c-0.2,0.1-0.5,0-0.6-0.2c-0.1-0.1,0-0.7,0.1-0.8c0.2-0.1,0.5,0,0.6,0.2C145.9,538.5,145.8,539.1,145.7,539.2z M146.1,536.2
			c-0.2,0.1-0.4,0-0.6-0.2c-0.1-0.1,0-0.6,0.1-0.7c0.2-0.1,0.4,0,0.6,0.2C146.3,535.6,146.2,536.1,146.1,536.2z M146.9,534.6
			c0.2-0.1,0.4,0,0.5,0.2c0.1,0.1,0,0.6,0,0.6c-0.2,0.1-0.4,0-0.5-0.2C146.8,535.1,146.8,534.6,146.9,534.6z M147,540.8
			c-0.2,0.1-0.5,0-0.6-0.2c-0.1-0.1,0-0.7,0.1-0.7c0.2-0.1,0.5,0,0.6,0.2C147.2,540.2,147.1,540.7,147,540.8z M147.9,534.9
			c-0.1-0.1-0.1-0.5,0-0.5c0.1-0.1,0.3,0,0.4,0.2c0.1,0.1,0.1,0.5,0,0.5C148.1,535.2,148,535.1,147.9,534.9z M147.8,539
			c0.2-0.1,0.4,0,0.6,0.2c0.1,0.1,0,0.6-0.1,0.7c-0.2,0.1-0.4,0-0.6-0.2C147.6,539.5,147.7,539,147.8,539z M147.5,542.4
			c-0.1-0.1,0-0.6,0.1-0.7c0.2-0.1,0.5-0.1,0.6,0.1c0.1,0.1,0,0.6-0.1,0.7C147.9,542.7,147.6,542.6,147.5,542.4z"/>
		<path d="M146.5,545.6c-1.4-1.1-2.9-2.8-4.1-4.8c-1.5-2.4-2.4-4.8-2.7-6.7c-1.4,1.1-2.3,2.6-2.6,4.3c0.3,1.4,0.9,2.9,1.8,4.4
			c0.7,1.2,1.6,2.2,2.5,3c0.2,0.1,0.3,0.1,0.5,0.2c0,0,0,0,0,0l0,0C143.5,546.3,145.1,546.2,146.5,545.6z"/>
		<path d="M122.6,572c-0.2,1.6,3.3,3.3,7.8,3.9c4.5,0.6,8.4-0.2,8.6-1.8c0.2-1.5-2.8-3.1-6.9-3.8l2.5-19.7l2.3-1.4
			c0.2-0.1,0.3-0.4,0.3-0.7l3.3-1.8c-1-0.9-1.9-1.9-2.7-3.2c-1-1.6-1.6-3.2-1.9-4.7l-3.5,2.4c-0.1,0-0.3,0-0.4,0l-4.3,2.7
			c-0.2,0.1-0.3,0.4-0.2,0.8l-2.2,1.5c-1.2,0.8-1.7,2.3-1,3.5l1.4,2.3c0.7,1.1,2.3,1.4,3.5,0.7l2.2-1.2c0.1,0.1,0.2,0.2,0.3,0.2
			l-2.4,18.2C125.8,569.8,122.8,570.6,122.6,572z"/>
	</g>
	<g opacity="0.1">
		<g>
			<path d="M261.3,521.3c-6,2.3-9.1,9-6.8,15c2.3,6,9,9.1,15,6.8c0.1,0,0.2-0.1,0.3-0.1l-1.1-0.6c0,0-1.1-0.8-0.1-2.5
				c0.7-1.2,2.4-1,3.3-0.8l-1.9-5.2c-0.5,1.3-1.5,2.3-2.8,2.8c-2.5,0.9-5.3-0.3-6.2-2.8c-0.9-2.5,0.3-5.3,2.8-6.2
				c2.3-0.9,4.9,0.2,6,2.4c0.2-0.1,0.3-0.2,0.5-0.3c0.4-0.1,0.8-0.1,1.1,0l-0.2-0.6c-0.3-0.9,0.1-1.9,1-2.3c0.9-0.3,1.8,0.1,2.2,0.9
				c0.2-0.3,0.5-0.6,0.9-0.7c0.1-0.1,0.3-0.1,0.4-0.1C273.1,521.7,266.9,519.2,261.3,521.3z M263.1,526.2c-3.3,1.2-5,4.9-3.8,8.3
				c0.1,0.2,0,0.5-0.3,0.6c-0.2,0.1-0.5,0-0.6-0.3c-1.4-3.8,0.5-8,4.3-9.5c0.2-0.1,0.5,0,0.6,0.3
				C263.5,525.9,263.4,526.1,263.1,526.2z M262.2,523.7c-4.7,1.8-7.1,7-5.3,11.7c0.1,0.2,0,0.5-0.3,0.6c-0.2,0.1-0.5,0-0.6-0.3
				c-1.9-5.2,0.7-10.9,5.9-12.9c0.2-0.1,0.5,0,0.6,0.3C262.6,523.4,262.4,523.7,262.2,523.7z"/>
			<path d="M263.9,532.8c0.3,0.8,1.2,1.3,2.1,0.9c0.8-0.3,1.3-1.2,0.9-2.1c-0.3-0.8-1.2-1.3-2.1-0.9C264,531,263.6,532,263.9,532.8z
				"/>
			<path d="M277.8,530.6l-0.9-2.3c-0.1-0.4-0.5-0.6-0.9-0.7c-0.2,0-0.4,0-0.5,0.1c-0.6,0.2-0.8,0.8-0.6,1.4l1.9,5l-0.3,0.1l-0.3,0.1
				l-1.9-5l-0.4-1.1c-0.2-0.6-0.8-0.8-1.4-0.6c-0.6,0.2-0.8,0.8-0.6,1.4l0.7,1.9l1.6,4.3l0,0l-0.6,0.2l-1.6-4.3
				c-0.2-0.6-0.8-0.8-1.4-0.6c-0.2,0.1-0.4,0.2-0.5,0.4c-0.2,0.3-0.3,0.7-0.1,1l0.3,0.9l2.8,7.5l-0.7-0.3c0,0-2.5-0.9-3.2,0.3
				c-0.6,1.1-0.2,1.5-0.1,1.6l1.5,0.8l4,2.1l10.2-3.8l-4.3-11.4c-0.2-0.6-0.8-0.8-1.4-0.6s-0.8,0.8-0.6,1.4l1,2.7l-0.6,0.2l0,0
				L277.8,530.6L277.8,530.6z"/>
		</g>
	</g>
	<g opacity="0.1">
		<g>
			<path d="M55.7,274l-4.8-16.7c-0.3-1-1.3-1.6-2.3-1.3l-14.8,4.3c-1,0.3-1.6,1.3-1.3,2.3l4.3,14.8c-0.8,0-1.7,0.2-2.5,0.5
				c-2.9,1.2-4.3,4.3-3.2,6.9c1.1,2.6,4.3,3.7,7.2,2.4c2.8-1.2,4-4.1,3.3-6.6l-5-17.3l11.2-3.2l3,10.5c-0.8,0-1.7,0.2-2.5,0.5
				c-2.9,1.2-4.3,4.3-3.2,6.9s4.3,3.7,7.2,2.4C55.1,279.3,56.5,276.5,55.7,274z"/>
		</g>
	</g>
	<g opacity="0.1">
		<g>
			<path d="M283.5,254.6l2.4-11.2l-2.5-0.5L281,254c-1.5,0.2-2.7,1.3-3,2.9c-0.3,1.5,0.4,3,1.6,3.8l-2.4,11.2l2.5,0.5l2.4-11.2
				c1.5-0.2,2.7-1.3,3-2.9C285.5,256.9,284.8,255.4,283.5,254.6z"/>
		</g>
		<g>
			<path d="M296.3,251.6l1.2-5.8l-2.5-0.5l-1.2,5.8c-1.5,0.2-2.7,1.3-3,2.9c-0.3,1.5,0.4,3,1.6,3.8l-3.5,16.6l2.5,0.5l3.5-16.6
				c1.5-0.2,2.7-1.3,3-2.9C298.2,254,297.5,252.4,296.3,251.6z"/>
		</g>
		<g>
			<path d="M307.5,266.8c0.3-1.5-0.4-3-1.6-3.8l3.1-14.7l-2.5-0.5l-3.1,14.7c-1.5,0.2-2.7,1.3-3,2.9c-0.3,1.5,0.4,3,1.6,3.8
				l-1.7,7.7l2.5,0.5l1.7-7.7C306,269.4,307.2,268.3,307.5,266.8z"/>
		</g>
	</g>
	<g opacity="0.1">
		<path d="M819.6,466.8c-1.9-3-5.8-4-8.9-2.4c0,0,0.1,0.8,0.3,1.4c0,0,0,0.1,0,0.1c0.4,1.6,1.2,3.4,2.3,5.2c1.3,2.1,2.8,3.8,4.3,4.9
			C820.6,473.9,821.5,469.9,819.6,466.8z M818.8,471.5c0.1-0.2,0.4-0.2,0.6,0c0.2,0.2,0,0.6,0,0.6c0,0,0,0.1,0,0.1
			c-0.1,0.1-0.4,0.1-0.5,0C818.7,472,818.8,471.6,818.8,471.5z M819.1,474.3c-0.2,0.2-0.4,0.2-0.5,0.1c-0.1-0.1,0-0.5,0.1-0.6
			c0.2-0.2,0.4-0.2,0.5-0.1C819.3,473.8,819.2,474.2,819.1,474.3z M820.2,471.3c-0.1,0.1-0.3,0-0.4-0.2c-0.1-0.1,0-0.5,0-0.6
			c0.1-0.1,0.3,0,0.4,0.2C820.3,470.9,820.3,471.3,820.2,471.3z M819.8,468.6c0.1-0.1,0.3,0,0.4,0.2c0.1,0.1,0.1,0.5,0,0.6
			c-0.1,0.1-0.3,0-0.4-0.2C819.7,469.1,819.7,468.7,819.8,468.6z M819.5,470c-0.2,0.1-0.4,0-0.5-0.2c-0.1-0.1-0.1-0.6,0-0.6
			c0.2-0.1,0.4,0,0.5,0.2C819.6,469.4,819.6,469.9,819.5,470z M819,466.8c0.1-0.1,0.3,0.1,0.4,0.3c0.1,0.1,0.1,0.6,0.1,0.6
			c-0.1,0.1-0.3-0.1-0.4-0.3C819,467.3,818.9,466.9,819,466.8z M818.7,467.6c0.1,0.1,0.1,0.6,0,0.7c-0.2,0.1-0.4,0-0.5-0.2
			c-0.1-0.1-0.1-0.6,0-0.7C818.3,467.3,818.6,467.4,818.7,467.6z M817.5,468.3c0.1,0.1,0,0.6-0.1,0.7c-0.2,0.1-0.4,0-0.6-0.2
			c-0.1-0.1,0-0.6,0.1-0.7C817.1,468,817.3,468.1,817.5,468.3z M816,464.3c0.1-0.1,0.3,0,0.4,0.1c0.1,0.2,0.1,0.4-0.1,0.5
			c-0.1,0.1-0.3,0-0.4-0.1C815.8,464.6,815.9,464.4,816,464.3z M812.6,464.5c-0.1,0.1-0.3,0.1-0.4,0.1c-0.1,0-0.2,0-0.2-0.1
			c-0.1-0.1,0-0.3,0.2-0.5c0.1-0.1,0.3-0.1,0.4-0.1c0.1,0,0.2,0,0.2,0.1C812.9,464.2,812.8,464.4,812.6,464.5z M813.6,465.9
			c-0.2,0.1-0.5,0.1-0.6-0.1c-0.1-0.1,0.1-0.6,0.2-0.7c0.2-0.1,0.5-0.1,0.6,0.1C813.9,465.4,813.7,465.8,813.6,465.9z M814.1,464.2
			c-0.2,0-0.4-0.1-0.4-0.3c0-0.1,0.1-0.2,0.3-0.2c0.2,0,0.4,0.1,0.4,0.3C814.5,464.1,814.3,464.2,814.1,464.2z M814.5,468
			c-0.2,0.1-0.5,0-0.6-0.2c-0.1-0.1,0-0.7,0.1-0.7c0.2-0.1,0.5,0,0.6,0.2C814.7,467.4,814.7,467.9,814.5,468z M815.1,465.1
			c-0.2,0.2-0.4,0.2-0.6,0c-0.1-0.1,0-0.6,0.1-0.6c0.2-0.1,0.4-0.2,0.5,0C815.3,464.6,815.2,465,815.1,465.1z M815.7,470.1
			c-0.2,0.1-0.5,0-0.6-0.2c-0.1-0.1,0-0.7,0.1-0.8c0.2-0.1,0.5-0.1,0.6,0.2C815.9,469.4,815.9,470,815.7,470.1z M816.2,467.1
			c-0.2,0.1-0.4,0-0.6-0.2c-0.1-0.1,0-0.6,0.1-0.7c0.2-0.1,0.4,0,0.6,0.2C816.4,466.5,816.3,467,816.2,467.1z M816.9,465.5
			c0.2-0.1,0.4,0,0.5,0.2c0.1,0.1,0,0.6,0,0.6c-0.2,0.1-0.4,0-0.5-0.2C816.8,466,816.8,465.5,816.9,465.5z M817,471.7
			c-0.2,0.1-0.5,0-0.6-0.2c-0.1-0.1,0-0.7,0.1-0.7c0.2-0.1,0.5,0,0.6,0.2C817.2,471.1,817.2,471.7,817,471.7z M817.9,465.9
			c-0.1-0.1-0.1-0.5,0-0.5c0.1-0.1,0.3,0,0.4,0.2c0.1,0.1,0.1,0.5,0,0.5C818.2,466.2,818,466.1,817.9,465.9z M817.9,469.9
			c0.2-0.1,0.4,0,0.6,0.2c0.1,0.1,0,0.6-0.1,0.7c-0.2,0.1-0.4,0-0.6-0.2C817.7,470.5,817.8,469.9,817.9,469.9z M817.6,473.3
			c-0.1-0.1,0-0.6,0.1-0.7c0.2-0.1,0.5-0.1,0.6,0.1c0.1,0.1,0,0.6-0.1,0.7C818,473.6,817.7,473.5,817.6,473.3z"/>
		<path d="M816.6,476.5c-1.4-1.1-2.9-2.8-4.1-4.8c-1.5-2.4-2.4-4.8-2.7-6.7c-1.4,1.1-2.3,2.6-2.6,4.3c0.3,1.4,0.9,2.9,1.8,4.4
			c0.7,1.2,1.6,2.2,2.5,3c0.2,0.1,0.3,0.1,0.5,0.2c0,0,0,0,0,0l0,0C813.5,477.2,815.1,477.1,816.6,476.5z"/>
		<path d="M792.7,502.9c-0.2,1.6,3.3,3.3,7.8,3.9c4.5,0.6,8.4-0.2,8.6-1.8c0.2-1.5-2.8-3.1-6.9-3.8l2.5-19.7l2.3-1.4
			c0.2-0.1,0.3-0.4,0.3-0.7l3.3-1.8c-1-0.9-1.9-1.9-2.7-3.2c-1-1.6-1.6-3.2-1.9-4.7l-3.5,2.4c-0.1,0-0.3,0-0.4,0l-4.3,2.7
			c-0.2,0.1-0.3,0.4-0.2,0.8l-2.2,1.5c-1.2,0.8-1.7,2.3-1,3.5l1.4,2.3c0.7,1.1,2.3,1.4,3.5,0.7l2.2-1.2c0.1,0.1,0.2,0.2,0.3,0.2
			l-2.4,18.2C795.8,500.7,792.9,501.5,792.7,502.9z"/>
	</g>
	<g opacity="0.1">
		<g>
			<path d="M931.4,452.2c-6,2.3-9.1,9-6.8,15c2.3,6,9,9.1,15,6.8c0.1,0,0.2-0.1,0.3-0.1l-1.1-0.6c0,0-1.1-0.8-0.1-2.5
				c0.7-1.2,2.4-1,3.3-0.8l-1.9-5.2c-0.5,1.3-1.5,2.3-2.8,2.8c-2.5,0.9-5.3-0.3-6.2-2.8c-0.9-2.5,0.3-5.3,2.8-6.2
				c2.3-0.9,4.9,0.2,6,2.4c0.2-0.1,0.3-0.2,0.5-0.3c0.4-0.1,0.8-0.1,1.1,0l-0.2-0.6c-0.3-0.9,0.1-1.9,1-2.3c0.9-0.3,1.8,0.1,2.2,0.9
				c0.2-0.3,0.5-0.6,0.9-0.7c0.1-0.1,0.3-0.1,0.4-0.1C943.1,452.6,937,450.2,931.4,452.2z M933.2,457.1c-3.3,1.2-5,4.9-3.8,8.3
				c0.1,0.2,0,0.5-0.3,0.6c-0.2,0.1-0.5,0-0.6-0.3c-1.4-3.8,0.5-8,4.3-9.5c0.2-0.1,0.5,0,0.6,0.3C933.5,456.8,933.4,457,933.2,457.1
				z M932.3,454.7c-4.7,1.8-7.1,7-5.3,11.7c0.1,0.2,0,0.5-0.3,0.6c-0.2,0.1-0.5,0-0.6-0.3c-1.9-5.2,0.7-10.9,5.9-12.9
				c0.2-0.1,0.5,0,0.6,0.3C932.6,454.3,932.5,454.6,932.3,454.7z"/>
			<path d="M933.9,463.7c0.3,0.8,1.2,1.3,2.1,0.9c0.8-0.3,1.3-1.2,0.9-2.1c-0.3-0.8-1.2-1.3-2.1-0.9S933.6,462.9,933.9,463.7z"/>
			<path d="M947.8,461.5l-0.9-2.3c-0.1-0.4-0.5-0.6-0.9-0.7c-0.2,0-0.4,0-0.5,0.1c-0.6,0.2-0.8,0.8-0.6,1.4l1.9,5l-0.3,0.1l-0.3,0.1
				l-1.9-5l-0.4-1.1c-0.2-0.6-0.8-0.8-1.4-0.6c-0.6,0.2-0.8,0.8-0.6,1.4l0.7,1.9l1.6,4.3l0,0l-0.6,0.2l-1.6-4.3
				c-0.2-0.6-0.8-0.8-1.4-0.6c-0.2,0.1-0.4,0.2-0.5,0.4c-0.2,0.3-0.3,0.7-0.1,1l0.3,0.9l2.8,7.5l-0.7-0.3c0,0-2.5-0.9-3.2,0.3
				c-0.6,1.1-0.2,1.5-0.1,1.6l1.5,0.8l4,2.1l10.2-3.8l-4.3-11.4c-0.2-0.6-0.8-0.8-1.4-0.6c-0.6,0.2-0.8,0.8-0.6,1.4l1,2.7l-0.6,0.2
				l0,0L947.8,461.5L947.8,461.5z"/>
		</g>
	</g>
	<g opacity="0.1">
		<g>
			<path d="M1396.3,387.3l2.4-11.2l-2.5-0.5l-2.4,11.2c-1.5,0.2-2.7,1.3-3,2.9c-0.3,1.5,0.4,3,1.6,3.8l-2.4,11.2l2.5,0.5l2.4-11.2
				c1.5-0.2,2.7-1.3,3-2.9C1398.2,389.6,1397.5,388.1,1396.3,387.3z"/>
		</g>
		<g>
			<path d="M1409,384.4l1.2-5.8l-2.5-0.5l-1.2,5.8c-1.5,0.2-2.7,1.3-3,2.9c-0.3,1.5,0.4,3,1.6,3.8l-3.5,16.6l2.5,0.5l3.5-16.6
				c1.5-0.2,2.7-1.3,3-2.9C1410.9,386.7,1410.3,385.2,1409,384.4z"/>
		</g>
		<g>
			<path d="M1420.3,399.6c0.3-1.5-0.4-3-1.6-3.8l3.1-14.7l-2.5-0.5l-3.1,14.7c-1.5,0.2-2.7,1.3-3,2.9c-0.3,1.5,0.4,3,1.6,3.8
				l-1.7,7.7l2.5,0.5l1.7-7.7C1418.7,402.2,1420,401.1,1420.3,399.6z"/>
		</g>
	</g>
	<g opacity="0.1">
		<g>
			<path d="M513.4,264.4l-2.9-11.1l-2.5,0.7l2.9,11.1c-1.2,0.9-1.8,2.4-1.4,3.9c0.4,1.5,1.7,2.6,3.2,2.7l2.9,11.1l2.5-0.7l-2.9-11.1
				c1.2-0.9,1.8-2.4,1.4-3.9C516.1,265.6,514.8,264.6,513.4,264.4z"/>
		</g>
		<g>
			<path d="M523.4,256.1l-1.5-5.8l-2.5,0.7l1.5,5.8c-1.2,0.9-1.8,2.4-1.4,3.9c0.4,1.5,1.7,2.6,3.2,2.7l4.3,16.4l2.5-0.7l-4.3-16.4
				c1.2-0.9,1.8-2.4,1.4-3.9S524.9,256.2,523.4,256.1z"/>
		</g>
		<g>
			<path d="M540.3,264.5c-0.4-1.5-1.7-2.6-3.2-2.7l-3.8-14.5l-2.5,0.7l3.8,14.5c-1.2,0.9-1.8,2.4-1.4,3.9c0.4,1.5,1.7,2.6,3.2,2.7
				l2,7.7l2.5-0.7l-2-7.7C540.1,267.6,540.7,266,540.3,264.5z"/>
		</g>
	</g>
	<g opacity="0.1">
		<g>
			<path d="M1060.9,409.3l-2.9-11.1l-2.5,0.7l2.9,11.1c-1.2,0.9-1.8,2.4-1.4,3.9c0.4,1.5,1.7,2.6,3.2,2.7l2.9,11.1l2.5-0.7
				l-2.9-11.1c1.2-0.9,1.8-2.4,1.4-3.9C1063.7,410.5,1062.4,409.4,1060.9,409.3z"/>
		</g>
		<g>
			<path d="M1071,400.9l-1.5-5.8l-2.5,0.7l1.5,5.8c-1.2,0.9-1.8,2.4-1.4,3.9c0.4,1.5,1.7,2.6,3.2,2.7l4.3,16.4l2.5-0.7l-4.3-16.4
				c1.2-0.9,1.8-2.4,1.4-3.9C1073.7,402.1,1072.4,401.1,1071,400.9z"/>
		</g>
		<g>
			<path d="M1087.9,409.4c-0.4-1.5-1.7-2.6-3.2-2.7l-3.8-14.5l-2.5,0.7l3.8,14.5c-1.2,0.9-1.8,2.4-1.4,3.9c0.4,1.5,1.7,2.6,3.2,2.7
				l2,7.7l2.5-0.7l-2-7.7C1087.7,412.5,1088.3,410.9,1087.9,409.4z"/>
		</g>
	</g>
	<g opacity="0.1">
		<path d="M30.2,379.6c-2.7-0.2-3.9,1.5-2.8,4l8.3,17.9c1.1,2.4,3.3,2.6,4.8,0.4L52,385.7c1.5-2.2,0.6-4.1-2-4.4L30.2,379.6z"/>
	</g>
	<g opacity="0.1">
		<path d="M176.6,330.2c-1.9-3-5.8-4-8.9-2.4c0,0,0.1,0.8,0.3,1.4c0,0,0,0.1,0,0.1c0.4,1.6,1.2,3.4,2.3,5.2c1.3,2.1,2.8,3.8,4.3,4.9
			C177.7,337.4,178.5,333.3,176.6,330.2z M175.9,335c0.1-0.2,0.4-0.2,0.6,0c0.2,0.2,0,0.6,0,0.6c0,0,0,0.1,0,0.1
			c-0.1,0.1-0.4,0.1-0.5,0C175.7,335.5,175.8,335,175.9,335z M176.2,337.8c-0.2,0.2-0.4,0.2-0.5,0.1c-0.1-0.1,0-0.5,0.1-0.6
			c0.2-0.2,0.4-0.2,0.5-0.1C176.3,337.3,176.3,337.7,176.2,337.8z M177.3,334.8c-0.1,0.1-0.3,0-0.4-0.2c-0.1-0.1,0-0.5,0-0.6
			c0.1-0.1,0.3,0,0.4,0.2C177.4,334.4,177.4,334.8,177.3,334.8z M176.8,332.1c0.1-0.1,0.3,0,0.4,0.2c0.1,0.1,0.1,0.5,0,0.6
			c-0.1,0.1-0.3,0-0.4-0.2C176.8,332.6,176.7,332.1,176.8,332.1z M176.6,333.4c-0.2,0.1-0.4,0-0.5-0.2c-0.1-0.1-0.1-0.6,0-0.6
			c0.2-0.1,0.4,0,0.5,0.2C176.7,332.9,176.7,333.4,176.6,333.4z M176,330.3c0.1-0.1,0.3,0.1,0.4,0.3c0.1,0.1,0.1,0.6,0.1,0.6
			c-0.1,0.1-0.3-0.1-0.4-0.3C176,330.8,176,330.3,176,330.3z M175.7,331.1c0.1,0.1,0.1,0.6,0,0.7c-0.2,0.1-0.4,0-0.5-0.2
			c-0.1-0.1-0.1-0.6,0-0.7C175.4,330.8,175.6,330.9,175.7,331.1z M174.5,331.8c0.1,0.1,0,0.6-0.1,0.7c-0.2,0.1-0.4,0-0.6-0.2
			c-0.1-0.1,0-0.6,0.1-0.7C174.1,331.5,174.4,331.5,174.5,331.8z M173.1,327.7c0.1-0.1,0.3,0,0.4,0.1c0.1,0.2,0.1,0.4-0.1,0.5
			c-0.1,0.1-0.3,0-0.4-0.1C172.9,328,172.9,327.8,173.1,327.7z M169.6,328c-0.1,0.1-0.3,0.1-0.4,0.1c-0.1,0-0.2,0-0.2-0.1
			c-0.1-0.1,0-0.3,0.2-0.5c0.1-0.1,0.3-0.1,0.4-0.1c0.1,0,0.2,0,0.2,0.1C169.9,327.6,169.8,327.8,169.6,328z M170.7,329.4
			c-0.2,0.1-0.5,0.1-0.6-0.1c-0.1-0.1,0.1-0.6,0.2-0.7c0.2-0.1,0.5-0.1,0.6,0.1C170.9,328.8,170.8,329.3,170.7,329.4z M171.1,327.7
			c-0.2,0-0.4-0.1-0.4-0.3c0-0.1,0.1-0.2,0.3-0.2c0.2,0,0.4,0.1,0.4,0.3C171.5,327.6,171.4,327.7,171.1,327.7z M171.6,331.5
			c-0.2,0.1-0.5,0-0.6-0.2c-0.1-0.1,0-0.7,0.1-0.7c0.2-0.1,0.5,0,0.6,0.2C171.8,330.8,171.7,331.4,171.6,331.5z M172.2,328.6
			c-0.2,0.2-0.4,0.2-0.6,0c-0.1-0.1,0-0.6,0.1-0.6c0.2-0.1,0.4-0.2,0.5,0C172.4,328.1,172.3,328.5,172.2,328.6z M172.8,333.6
			c-0.2,0.1-0.5,0-0.6-0.2c-0.1-0.1,0-0.7,0.1-0.8c0.2-0.1,0.5,0,0.6,0.2C173,332.9,172.9,333.5,172.8,333.6z M173.2,330.5
			c-0.2,0.1-0.4,0-0.6-0.2c-0.1-0.1,0-0.6,0.1-0.7c0.2-0.1,0.4,0,0.6,0.2C173.4,330,173.4,330.5,173.2,330.5z M174,329
			c0.2-0.1,0.4,0,0.5,0.2c0.1,0.1,0,0.6,0,0.6c-0.2,0.1-0.4,0-0.5-0.2C173.9,329.5,173.9,329,174,329z M174.1,335.2
			c-0.2,0.1-0.5,0-0.6-0.2c-0.1-0.1,0-0.7,0.1-0.7c0.2-0.1,0.5,0,0.6,0.2C174.3,334.6,174.2,335.1,174.1,335.2z M175,329.3
			c-0.1-0.1-0.1-0.5,0-0.5c0.1-0.1,0.3,0,0.4,0.2c0.1,0.1,0.1,0.5,0,0.5C175.3,329.6,175.1,329.5,175,329.3z M174.9,333.3
			c0.2-0.1,0.4,0,0.6,0.2c0.1,0.1,0,0.6-0.1,0.7c-0.2,0.1-0.4,0-0.6-0.2C174.8,333.9,174.8,333.4,174.9,333.3z M174.6,336.8
			c-0.1-0.1,0-0.6,0.1-0.7c0.2-0.1,0.5-0.1,0.6,0.1c0.1,0.1,0,0.6-0.1,0.7C175,337.1,174.8,337,174.6,336.8z"/>
		<path d="M173.7,339.9c-1.4-1.1-2.9-2.8-4.1-4.8c-1.5-2.4-2.4-4.8-2.7-6.7c-1.4,1.1-2.3,2.6-2.6,4.3c0.3,1.4,0.9,2.9,1.8,4.4
			c0.7,1.2,1.6,2.2,2.5,3c0.2,0.1,0.3,0.1,0.5,0.2c0,0,0,0,0,0l0,0C170.6,340.7,172.2,340.6,173.7,339.9z"/>
		<path d="M149.8,366.4c-0.2,1.6,3.3,3.3,7.8,3.9c4.5,0.6,8.4-0.2,8.6-1.8c0.2-1.5-2.8-3.1-6.9-3.8l2.5-19.7l2.3-1.4
			c0.2-0.1,0.3-0.4,0.3-0.7l3.3-1.8c-1-0.9-1.9-1.9-2.7-3.2c-1-1.6-1.6-3.2-1.9-4.7l-3.5,2.4c-0.1,0-0.3,0-0.4,0l-4.3,2.7
			c-0.2,0.1-0.3,0.4-0.2,0.8l-2.2,1.5c-1.2,0.8-1.7,2.3-1,3.5l1.4,2.3c0.7,1.1,2.3,1.4,3.5,0.7l2.2-1.2c0.1,0.1,0.2,0.2,0.3,0.2
			l-2.4,18.2C152.9,364.2,149.9,365,149.8,366.4z"/>
	</g>
	<g opacity="0.1">
		<circle cx="488.7" cy="330.8" r="2.5"/>
		<path d="M488,344.8c-2.9-0.1-5.4,2.1-5.5,5c-0.1,2.9,2.1,5.4,5,5.5s5.4-2.1,5.5-5C493.1,347.4,490.9,344.9,488,344.8z"/>
		<path d="M497.1,318.5l-15.6-0.8c-4.6-0.2-8.6,3.3-8.8,8l-1.5,28.9c-0.2,4.6,3.3,8.6,8,8.8l15.6,0.8c4.6,0.2,8.6-3.3,8.8-8
			l1.5-28.9C505.4,322.7,501.8,318.8,497.1,318.5z M489,325.3c3,0.2,5.4,2.7,5.2,5.8c-0.2,3-2.7,5.4-5.8,5.2c-3-0.2-5.4-2.7-5.2-5.8
			C483.4,327.5,485.9,325.2,489,325.3z M487.2,360.2c-5.6-0.3-10-5.1-9.7-10.7c0.3-5.6,5.1-10,10.7-9.7c5.6,0.3,10,5.1,9.7,10.7
			C497.6,356.2,492.8,360.5,487.2,360.2z"/>
	</g>
	<g opacity="0.1">
		<path d="M289,361.3c-6,2.3-9.1,9-6.8,15c2.3,6,9,9.1,15,6.8c0.1,0,0.2-0.1,0.3-0.1l-1.1-0.6c0,0-1.1-0.8-0.1-2.5
			c0.7-1.2,2.4-1,3.3-0.8l-1.9-5.2c-0.5,1.3-1.5,2.3-2.8,2.8c-2.5,0.9-5.3-0.3-6.2-2.8c-0.9-2.5,0.3-5.3,2.8-6.2
			c2.3-0.9,4.9,0.2,6,2.4c0.2-0.1,0.3-0.2,0.5-0.3c0.4-0.1,0.8-0.1,1.1,0l-0.2-0.6c-0.3-0.9,0.1-1.9,1-2.3c0.9-0.3,1.8,0.1,2.2,0.9
			c0.2-0.3,0.5-0.6,0.9-0.7c0.1-0.1,0.3-0.1,0.4-0.1C300.8,361.7,294.6,359.2,289,361.3z M290.9,366.2c-3.3,1.2-5,4.9-3.8,8.3
			c0.1,0.2,0,0.5-0.3,0.6c-0.2,0.1-0.5,0-0.6-0.3c-1.4-3.8,0.5-8,4.3-9.5c0.2-0.1,0.5,0,0.6,0.3
			C291.2,365.9,291.1,366.1,290.9,366.2z M289.9,363.7c-4.7,1.8-7.1,7-5.3,11.7c0.1,0.2,0,0.5-0.3,0.6c-0.2,0.1-0.5,0-0.6-0.3
			c-1.9-5.2,0.7-10.9,5.9-12.9c0.2-0.1,0.5,0,0.6,0.3C290.3,363.4,290.2,363.6,289.9,363.7z"/>
		<path d="M291.6,372.8c0.3,0.8,1.2,1.3,2.1,0.9c0.8-0.3,1.3-1.2,0.9-2.1c-0.3-0.8-1.2-1.3-2.1-0.9S291.3,372,291.6,372.8z"/>
		<path d="M305.5,370.6l-0.9-2.3c-0.1-0.4-0.5-0.6-0.9-0.7c-0.2,0-0.4,0-0.5,0.1c-0.6,0.2-0.8,0.8-0.6,1.4l1.9,5l-0.3,0.1l-0.3,0.1
			l-1.9-5l-0.4-1.1c-0.2-0.6-0.8-0.8-1.4-0.6c-0.6,0.2-0.8,0.8-0.6,1.4l0.7,1.9l1.6,4.3l0,0l-0.6,0.2l-1.6-4.3
			c-0.2-0.6-0.8-0.8-1.4-0.6c-0.2,0.1-0.4,0.2-0.5,0.4c-0.2,0.3-0.3,0.7-0.1,1l0.3,0.9l2.8,7.5L300,380c0,0-2.5-0.9-3.2,0.3
			c-0.6,1.1-0.2,1.5-0.1,1.6l1.5,0.8l4,2.1l10.2-3.8l-4.3-11.4c-0.2-0.6-0.8-0.8-1.4-0.6c-0.6,0.2-0.8,0.8-0.6,1.4l1,2.7l-0.6,0.2
			l0,0L305.5,370.6L305.5,370.6z"/>
	</g>
	<g opacity="0.1">
		<g>
			<path d="M500.2,54.4l-4.8-16.7c-0.3-1-1.3-1.6-2.3-1.3l-14.8,4.3c-1,0.3-1.6,1.3-1.3,2.3l4.3,14.8c-0.8,0-1.7,0.2-2.5,0.5
				c-2.9,1.2-4.3,4.3-3.2,6.9c1.1,2.6,4.3,3.7,7.2,2.4c2.8-1.2,4-4.1,3.3-6.6l-5-17.3l11.2-3.2l3,10.5c-0.8,0-1.7,0.2-2.5,0.5
				c-2.9,1.2-4.3,4.3-3.2,6.9c1.1,2.6,4.3,3.7,7.2,2.4C499.6,59.7,501,56.9,500.2,54.4z"/>
		</g>
	</g>
	<g opacity="0.1">
		<g>
			<path d="M585.1,70l2.4-11.2l-2.5-0.5l-2.4,11.2c-1.5,0.2-2.7,1.3-3,2.9c-0.3,1.5,0.4,3,1.6,3.8l-2.4,11.2l2.5,0.5l2.4-11.2
				c1.5-0.2,2.7-1.3,3-2.9C587,72.3,586.3,70.8,585.1,70z"/>
		</g>
		<g>
			<path d="M597.8,67.1l1.2-5.8l-2.5-0.5l-1.2,5.8c-1.5,0.2-2.7,1.3-3,2.9c-0.3,1.5,0.4,3,1.6,3.8l-3.5,16.6l2.5,0.5l3.5-16.6
				c1.5-0.2,2.7-1.3,3-2.9C599.7,69.4,599.1,67.9,597.8,67.1z"/>
		</g>
		<g>
			<path d="M609.1,82.3c0.3-1.5-0.4-3-1.6-3.8l3.1-14.7l-2.5-0.5L605,77.9c-1.5,0.2-2.7,1.3-3,2.9c-0.3,1.5,0.4,3,1.6,3.8l-1.7,7.7
				l2.5,0.5l1.7-7.7C607.5,84.9,608.8,83.8,609.1,82.3z"/>
		</g>
	</g>
	<path opacity="0.1" d="M465.6,183.1c-2.7-0.2-3.9,1.5-2.8,4l8.3,17.9c1.1,2.4,3.3,2.6,4.8,0.4l11.5-16.2c1.5-2.2,0.6-4.1-2-4.4
		L465.6,183.1z"/>
	<g opacity="0.1">
		<g>
			<path d="M1157.3,274.6c-6,2.3-9.1,9-6.8,15c2.3,6,9,9.1,15,6.8c0.1,0,0.2-0.1,0.3-0.1l-1.1-0.6c0,0-1.1-0.8-0.1-2.5
				c0.7-1.2,2.4-1,3.3-0.8l-1.9-5.2c-0.5,1.3-1.5,2.3-2.8,2.8c-2.5,0.9-5.3-0.3-6.2-2.8c-0.9-2.5,0.3-5.3,2.8-6.2
				c2.3-0.9,4.9,0.2,6,2.4c0.2-0.1,0.3-0.2,0.5-0.3c0.4-0.1,0.8-0.1,1.1,0l-0.2-0.6c-0.3-0.9,0.1-1.9,1-2.3c0.9-0.3,1.8,0.1,2.2,0.9
				c0.2-0.3,0.5-0.6,0.9-0.7c0.1-0.1,0.3-0.1,0.4-0.1C1169.1,275,1162.9,272.5,1157.3,274.6z M1159.2,279.5c-3.3,1.2-5,4.9-3.8,8.3
				c0.1,0.2,0,0.5-0.3,0.6c-0.2,0.1-0.5,0-0.6-0.3c-1.4-3.8,0.5-8,4.3-9.5c0.2-0.1,0.5,0,0.6,0.3
				C1159.5,279.1,1159.4,279.4,1159.2,279.5z M1158.2,277c-4.7,1.8-7.1,7-5.3,11.7c0.1,0.2,0,0.5-0.3,0.6c-0.2,0.1-0.5,0-0.6-0.3
				c-1.9-5.2,0.7-10.9,5.9-12.9c0.2-0.1,0.5,0,0.6,0.3S1158.5,276.9,1158.2,277z"/>
			<path d="M1159.9,286c0.3,0.8,1.2,1.3,2.1,0.9s1.3-1.2,0.9-2.1c-0.3-0.8-1.2-1.3-2.1-0.9C1160,284.3,1159.6,285.2,1159.9,286z"/>
			<path d="M1173.8,283.8l-0.9-2.3c-0.1-0.4-0.5-0.6-0.9-0.7c-0.2,0-0.4,0-0.5,0.1c-0.6,0.2-0.8,0.8-0.6,1.4l1.9,5l-0.3,0.1
				l-0.3,0.1l-1.9-5l-0.4-1.1c-0.2-0.6-0.8-0.8-1.4-0.6c-0.6,0.2-0.8,0.8-0.6,1.4l0.7,1.9l1.6,4.3l0,0l-0.6,0.2l-1.6-4.3
				c-0.2-0.6-0.8-0.8-1.4-0.6c-0.2,0.1-0.4,0.2-0.5,0.4c-0.2,0.3-0.3,0.7-0.1,1l0.3,0.9l2.8,7.5l-0.7-0.3c0,0-2.5-0.9-3.2,0.3
				c-0.6,1.1-0.2,1.5-0.1,1.6l1.5,0.8l4,2.1l10.2-3.8l-4.3-11.4c-0.2-0.6-0.8-0.8-1.4-0.6s-0.8,0.8-0.6,1.4l1,2.7l-0.6,0.2l0,0
				L1173.8,283.8L1173.8,283.8z"/>
		</g>
	</g>
	<g opacity="0.1">
		<circle cx="1327.5" cy="457.9" r="2.5"/>
		<path d="M1326.8,471.9c-2.9-0.1-5.4,2.1-5.5,5c-0.1,2.9,2.1,5.4,5,5.5s5.4-2.1,5.5-5C1331.9,474.5,1329.7,472,1326.8,471.9z"/>
		<path d="M1336,445.7l-15.6-0.8c-4.6-0.2-8.6,3.3-8.8,8l-1.5,28.9c-0.2,4.6,3.3,8.6,8,8.8l15.6,0.8c4.6,0.2,8.6-3.3,8.8-8l1.5-28.9
			C1344.2,449.9,1340.6,445.9,1336,445.7z M1327.8,452.4c3,0.2,5.4,2.7,5.2,5.8c-0.2,3-2.7,5.4-5.8,5.2c-3-0.2-5.4-2.7-5.2-5.8
			C1322.2,454.6,1324.8,452.3,1327.8,452.4z M1326,487.3c-5.6-0.3-10-5.1-9.7-10.7s5.1-10,10.7-9.7c5.6,0.3,10,5.1,9.7,10.7
			C1336.5,483.3,1331.6,487.6,1326,487.3z"/>
	</g>
	<g opacity="0.1">
		<path d="M1127.9,488.4c-6,2.3-9.1,9-6.8,15c2.3,6,9,9.1,15,6.8c0.1,0,0.2-0.1,0.3-0.1l-1.1-0.6c0,0-1.1-0.8-0.1-2.5
			c0.7-1.2,2.4-1,3.3-0.8l-1.9-5.2c-0.5,1.3-1.5,2.3-2.8,2.8c-2.5,0.9-5.3-0.3-6.2-2.8c-0.9-2.5,0.3-5.3,2.8-6.2
			c2.3-0.9,4.9,0.2,6,2.4c0.2-0.1,0.3-0.2,0.5-0.3c0.4-0.1,0.8-0.1,1.1,0l-0.2-0.6c-0.3-0.9,0.1-1.9,1-2.3c0.9-0.3,1.8,0.1,2.2,0.9
			c0.2-0.3,0.5-0.6,0.9-0.7c0.1-0.1,0.3-0.1,0.4-0.1C1139.6,488.8,1133.5,486.4,1127.9,488.4z M1129.7,493.3c-3.3,1.2-5,4.9-3.8,8.3
			c0.1,0.2,0,0.5-0.3,0.6c-0.2,0.1-0.5,0-0.6-0.3c-1.4-3.8,0.5-8,4.3-9.5c0.2-0.1,0.5,0,0.6,0.3
			C1130.1,493,1129.9,493.2,1129.7,493.3z M1128.8,490.9c-4.7,1.8-7.1,7-5.3,11.7c0.1,0.2,0,0.5-0.3,0.6c-0.2,0.1-0.5,0-0.6-0.3
			c-1.9-5.2,0.7-10.9,5.9-12.9c0.2-0.1,0.5,0,0.6,0.3C1129.1,490.5,1129,490.8,1128.8,490.9z"/>
		<path d="M1130.4,499.9c0.3,0.8,1.2,1.3,2.1,0.9s1.3-1.2,0.9-2.1c-0.3-0.8-1.2-1.3-2.1-0.9C1130.6,498.2,1130.1,499.1,1130.4,499.9
			z"/>
		<path d="M1144.3,497.7l-0.9-2.3c-0.1-0.4-0.5-0.6-0.9-0.7c-0.2,0-0.4,0-0.5,0.1c-0.6,0.2-0.8,0.8-0.6,1.4l1.9,5l-0.3,0.1l-0.3,0.1
			l-1.9-5l-0.4-1.1c-0.2-0.6-0.8-0.8-1.4-0.6c-0.6,0.2-0.8,0.8-0.6,1.4l0.7,1.9l1.6,4.3l0,0l-0.6,0.2l-1.6-4.3
			c-0.2-0.6-0.8-0.8-1.4-0.6c-0.2,0.1-0.4,0.2-0.5,0.4c-0.2,0.3-0.3,0.7-0.1,1l0.3,0.9l2.8,7.5l-0.7-0.3c0,0-2.5-0.9-3.2,0.3
			c-0.6,1.1-0.2,1.5-0.1,1.6l1.5,0.8l4,2.1l10.2-3.8l-4.3-11.4c-0.2-0.6-0.8-0.8-1.4-0.6s-0.8,0.8-0.6,1.4l1,2.7l-0.6,0.2l0,0
			L1144.3,497.7L1144.3,497.7z"/>
	</g>
	<path opacity="0.1" d="M1304.4,310.2c-2.7-0.2-3.9,1.5-2.8,4l8.3,17.9c1.1,2.4,3.3,2.6,4.8,0.4l11.5-16.2c1.5-2.2,0.6-4.1-2-4.4
		L1304.4,310.2z"/>
	<g opacity="0.1">
		<path d="M1190.9,349.6c-2.5-2.5-6.5-2.7-9.2-0.4c0,0,0.3,0.8,0.6,1.3c0,0,0,0,0.1,0.1c0.8,1.5,1.9,3,3.4,4.5
			c1.7,1.8,3.6,3.1,5.2,3.9C1193.4,356.3,1193.4,352.2,1190.9,349.6z M1191.2,354.4c0.1-0.2,0.4-0.2,0.6-0.1
			c0.2,0.1,0.1,0.6,0.1,0.6c0,0,0,0.1,0,0.1c-0.1,0.2-0.3,0.2-0.5,0.1C1191.2,354.9,1191.2,354.4,1191.2,354.4z M1192.1,357.1
			c-0.1,0.2-0.3,0.3-0.5,0.2c-0.1,0-0.1-0.5,0-0.6c0.1-0.2,0.3-0.3,0.5-0.2C1192.1,356.5,1192.2,356.9,1192.1,357.1z M1192.5,353.9
			c-0.1,0.1-0.3,0.1-0.5-0.1c-0.1-0.1-0.2-0.5-0.1-0.6c0.1-0.1,0.3-0.1,0.5,0.1C1192.5,353.4,1192.6,353.8,1192.5,353.9z
			 M1191.5,351.4c0.1-0.1,0.3,0,0.4,0.1c0.1,0.1,0.2,0.5,0.2,0.5c-0.1,0.1-0.3,0-0.4-0.1C1191.5,351.8,1191.4,351.4,1191.5,351.4z
			 M1191.5,352.7c-0.1,0.1-0.4,0.1-0.5-0.1c-0.1-0.1-0.2-0.6-0.1-0.6c0.1-0.1,0.4-0.1,0.5,0.1
			C1191.5,352.2,1191.6,352.6,1191.5,352.7z M1190.3,349.8c0.1-0.1,0.3,0,0.5,0.2c0.1,0.1,0.3,0.5,0.2,0.6c-0.1,0.1-0.3,0-0.5-0.2
			C1190.4,350.2,1190.3,349.8,1190.3,349.8z M1190.2,350.6c0.1,0.1,0.2,0.6,0.1,0.7c-0.1,0.1-0.4,0.1-0.6-0.1
			c-0.1-0.1-0.2-0.6-0.1-0.7C1189.8,350.4,1190,350.4,1190.2,350.6z M1189.2,351.5c0.1,0.1,0.2,0.6,0.1,0.7
			c-0.2,0.1-0.4,0.1-0.6-0.1c-0.1-0.1-0.2-0.6-0.1-0.7C1188.7,351.3,1189,351.3,1189.2,351.5z M1186.9,347.9c0.1-0.1,0.3-0.1,0.5,0
			c0.1,0.1,0.1,0.3,0,0.5c-0.1,0.1-0.3,0.1-0.5,0C1186.8,348.2,1186.8,348,1186.9,347.9z M1183.6,348.9c-0.1,0.1-0.2,0.2-0.3,0.2
			c-0.1,0-0.2,0-0.2,0c-0.1-0.1-0.1-0.3,0.1-0.5c0.1-0.1,0.2-0.2,0.3-0.2c0.1,0,0.2,0,0.2,0C1183.8,348.5,1183.8,348.7,1183.6,348.9
			z M1184.9,350c-0.2,0.2-0.4,0.2-0.6,0c-0.1-0.1-0.1-0.6,0-0.7c0.2-0.2,0.4-0.2,0.6,0C1185,349.4,1185,349.9,1184.9,350z
			 M1185,348.3c-0.2,0-0.4,0-0.4-0.2c0-0.1,0.1-0.3,0.3-0.3c0.2,0,0.4,0,0.4,0.2C1185.3,348.1,1185.2,348.2,1185,348.3z
			 M1186.2,351.9c-0.2,0.2-0.4,0.1-0.6,0c-0.1-0.1-0.1-0.6,0-0.7c0.2-0.2,0.5-0.1,0.6,0C1186.3,351.2,1186.3,351.8,1186.2,351.9z
			 M1186.2,348.9c-0.1,0.2-0.4,0.2-0.5,0.1c-0.1-0.1-0.1-0.6,0-0.7c0.1-0.2,0.4-0.2,0.5-0.1C1186.3,348.4,1186.3,348.8,1186.2,348.9
			z M1187.9,353.7c-0.2,0.2-0.5,0.2-0.7,0c-0.1-0.1-0.2-0.7,0-0.8c0.2-0.2,0.5-0.2,0.7,0C1187.9,353,1188,353.6,1187.9,353.7z
			 M1187.7,350.6c-0.2,0.2-0.4,0.1-0.6-0.1c-0.1-0.1-0.2-0.6-0.1-0.7c0.2-0.2,0.4-0.1,0.6,0.1C1187.7,350,1187.7,350.5,1187.7,350.6
			z M1188,348.9c0.1-0.1,0.4-0.1,0.5,0.1c0.1,0.1,0.2,0.6,0.1,0.6c-0.1,0.1-0.4,0.1-0.5-0.1C1188,349.4,1188,349,1188,348.9z
			 M1189.5,355c-0.2,0.2-0.5,0.1-0.6,0c-0.1-0.1-0.1-0.6,0-0.7c0.2-0.2,0.4-0.1,0.6,0C1189.5,354.3,1189.6,354.9,1189.5,355z
			 M1189.1,349.1c-0.1-0.1-0.2-0.5-0.1-0.5c0.1-0.1,0.3,0,0.4,0.1c0.1,0.1,0.2,0.5,0.1,0.5C1189.4,349.3,1189.2,349.2,1189.1,349.1z
			 M1189.9,353c0.2-0.2,0.4-0.1,0.6,0.1c0.1,0.1,0.2,0.6,0.1,0.7c-0.2,0.2-0.4,0.1-0.6-0.1C1189.9,353.6,1189.8,353.1,1189.9,353z
			 M1190.4,356.4c-0.1-0.1-0.1-0.6,0-0.7c0.2-0.2,0.4-0.2,0.6,0c0.1,0.1,0.1,0.6,0,0.7C1190.8,356.6,1190.5,356.6,1190.4,356.4z"/>
		<path d="M1190.1,359.7c-1.6-0.8-3.4-2.1-5.1-3.8c-2-2-3.4-4.2-4-6c-1.2,1.4-1.7,3.1-1.6,4.8c0.6,1.3,1.5,2.7,2.8,3.9
			c1,1,2,1.8,3.1,2.4c0.2,0,0.3,0,0.5,0c0,0,0,0,0.1,0l0,0C1187.3,361.1,1188.8,360.7,1190.1,359.7z"/>
		<path d="M1172.4,390.6c0.1,1.6,3.9,2.5,8.5,2.1c4.5-0.4,8.1-2,8-3.6c-0.1-1.5-3.4-2.4-7.6-2.2l-1.8-19.8l1.9-1.9
			c0.2-0.2,0.2-0.4,0.1-0.7l2.9-2.5c-1.1-0.6-2.2-1.5-3.3-2.5c-1.3-1.3-2.3-2.8-2.9-4.2l-2.9,3.1c-0.2,0-0.3,0-0.4,0.1l-3.7,3.6
			c-0.2,0.2-0.2,0.5-0.1,0.8l-1.8,2c-1,1-1.1,2.6-0.2,3.6l1.9,1.9c0.9,1,2.6,0.9,3.6-0.1l1.9-1.6c0.1,0.1,0.2,0.1,0.3,0.2l1.6,18.3
			C1175,387.9,1172.3,389.3,1172.4,390.6z"/>
	</g>
	<g opacity="0.1">
		<g>
			<circle cx="806.1" cy="141.2" r="2.5"/>
			<path d="M810.2,154.6c-2.8,0.8-4.3,3.8-3.5,6.5c0.8,2.8,3.8,4.3,6.5,3.5c2.8-0.8,4.3-3.8,3.5-6.5
				C815.9,155.3,812.9,153.7,810.2,154.6z"/>
			<path d="M809.9,126.8l-14.9,4.5c-4.4,1.3-7,6-5.6,10.5l8.4,27.7c1.3,4.4,6,7,10.5,5.6l14.9-4.5c4.4-1.3,7-6,5.6-10.5l-8.4-27.7
				C819.1,128,814.4,125.5,809.9,126.8z M804.5,135.9c2.9-0.9,6,0.8,6.9,3.7c0.9,2.9-0.8,6-3.7,6.9c-2.9,0.9-6-0.8-6.9-3.7
				C800,139.9,801.6,136.8,804.5,135.9z M814.6,169.4c-5.4,1.6-11.1-1.4-12.7-6.8s1.4-11.1,6.8-12.7c5.4-1.6,11.1,1.4,12.7,6.8
				C823.1,162.1,820,167.8,814.6,169.4z"/>
		</g>
	</g>
	<g opacity="0.1">
		<g>
			<path d="M723.5,14.5c-8.1,3-12.2,12.1-9.2,20.2c3,8.1,12.1,12.2,20.2,9.2c0.1,0,0.2-0.1,0.4-0.1l-1.5-0.8c-0.1,0-1.4-1.1-0.1-3.4
				c0.9-1.6,3.2-1.3,4.5-1l-2.6-7c-0.6,1.7-2,3.1-3.8,3.8c-3.4,1.3-7.1-0.5-8.4-3.8c-1.3-3.4,0.5-7.1,3.8-8.4
				c3.2-1.2,6.7,0.3,8.1,3.2c0.2-0.2,0.4-0.3,0.7-0.4c0.5-0.2,1.1-0.2,1.5,0l-0.3-0.8c-0.5-1.2,0.2-2.6,1.4-3.1
				c1.2-0.4,2.4,0.1,3,1.2c0.3-0.4,0.7-0.8,1.2-1c0.2-0.1,0.4-0.1,0.6-0.1C739.3,15,731,11.6,723.5,14.5z M725.9,21
				c-4.5,1.7-6.7,6.7-5.1,11.1c0.1,0.3,0,0.7-0.4,0.8c-0.3,0.1-0.7,0-0.8-0.4c-1.9-5.1,0.7-10.8,5.8-12.7c0.3-0.1,0.7,0,0.8,0.4
				C726.4,20.6,726.3,20.9,725.9,21z M724.7,17.7c-6.3,2.4-9.5,9.4-7.2,15.7c0.1,0.3,0,0.7-0.4,0.8c-0.3,0.1-0.7,0-0.8-0.4
				c-2.6-6.9,0.9-14.7,7.9-17.3c0.3-0.1,0.7,0,0.8,0.4C725.2,17.2,725,17.6,724.7,17.7z"/>
			<path d="M726.9,29.9c0.4,1.1,1.7,1.7,2.8,1.3c1.1-0.4,1.7-1.7,1.3-2.8c-0.4-1.1-1.7-1.7-2.8-1.3
				C727.1,27.5,726.5,28.8,726.9,29.9z"/>
			<path d="M745.7,26.9l-1.2-3.1c-0.2-0.5-0.7-0.9-1.2-0.9c-0.2,0-0.5,0-0.7,0.1c-0.8,0.3-1.1,1.1-0.9,1.9l2.5,6.8l-0.4,0.2
				l-0.4,0.2l-2.5-6.8l-0.6-1.5c-0.3-0.8-1.1-1.1-1.9-0.9c-0.8,0.3-1.1,1.1-0.9,1.9l1,2.6l2.1,5.7l0,0l-0.9,0.3l-2.1-5.7
				c-0.3-0.8-1.1-1.1-1.9-0.9c-0.3,0.1-0.5,0.3-0.7,0.5c-0.3,0.4-0.4,0.9-0.2,1.4l0.5,1.2l3.8,10.1l-1-0.4c0,0-3.4-1.2-4.3,0.3
				c-0.8,1.4-0.2,2.1-0.1,2.2l2,1.1l5.3,2.8l13.8-5.1l-5.7-15.3c-0.3-0.8-1.1-1.1-1.9-0.9s-1.1,1.1-0.9,1.9l1.4,3.7l-0.9,0.3l0,0
				L745.7,26.9L745.7,26.9z"/>
		</g>
	</g>
	<g opacity="0.1">
		<g>
			<path d="M705.5,238.9l-4.8-16.7c-0.3-1-1.3-1.6-2.3-1.3l-14.8,4.3c-1,0.3-1.6,1.3-1.3,2.3l4.3,14.8c-0.8,0-1.7,0.2-2.5,0.5
				c-2.9,1.2-4.3,4.3-3.2,6.9c1.1,2.6,4.3,3.7,7.2,2.4c2.8-1.2,4-4.1,3.3-6.6l-5-17.3l11.2-3.2l3,10.5c-0.8,0-1.7,0.2-2.5,0.5
				c-2.9,1.2-4.3,4.3-3.2,6.9c1.1,2.6,4.3,3.7,7.2,2.4C704.9,244.3,706.2,241.4,705.5,238.9z"/>
		</g>
	</g>
	<g opacity="0.1">
		<g>
			<path d="M790.3,254.6l2.4-11.2l-2.5-0.5l-2.4,11.2c-1.5,0.2-2.7,1.3-3,2.9c-0.3,1.5,0.4,3,1.6,3.8l-2.4,11.2l2.5,0.5l2.4-11.2
				c1.5-0.2,2.7-1.3,3-2.9C792.2,256.9,791.6,255.4,790.3,254.6z"/>
		</g>
		<g>
			<path d="M803,251.6l1.2-5.8l-2.5-0.5l-1.2,5.8c-1.5,0.2-2.7,1.3-3,2.9c-0.3,1.5,0.4,3,1.6,3.8l-3.5,16.6l2.5,0.5l3.5-16.6
				c1.5-0.2,2.7-1.3,3-2.9S804.3,252.4,803,251.6z"/>
		</g>
		<g>
			<path d="M814.3,266.8c0.3-1.5-0.4-3-1.6-3.8l3.1-14.7l-2.5-0.5l-3.1,14.7c-1.5,0.2-2.7,1.3-3,2.9c-0.3,1.5,0.4,3,1.6,3.8
				l-1.7,7.7l2.5,0.5l1.7-7.7C812.8,269.4,814,268.3,814.3,266.8z"/>
		</g>
	</g>
	<g opacity="0.1">
		<path d="M670.8,367.7c-2.7-0.2-3.9,1.5-2.8,4l8.3,17.9c1.1,2.4,3.3,2.6,4.8,0.4l11.5-16.2c1.5-2.2,0.6-4.1-2-4.4L670.8,367.7z"/>
	</g>
	<g opacity="0.1">
		<g>
			<path d="M1350.6,66.6l-4.8-16.7c-0.3-1-1.3-1.6-2.3-1.3l-14.8,4.3c-1,0.3-1.6,1.3-1.3,2.3l4.3,14.8c-0.8,0-1.7,0.2-2.5,0.5
				c-2.9,1.2-4.3,4.3-3.2,6.9c1.1,2.6,4.3,3.7,7.2,2.4c2.8-1.2,4-4.1,3.3-6.6l-5-17.3l11.2-3.2l3,10.5c-0.8,0-1.7,0.2-2.5,0.5
				c-2.9,1.2-4.3,4.3-3.2,6.9c1.1,2.6,4.3,3.7,7.2,2.4C1350,71.9,1351.3,69.1,1350.6,66.6z"/>
		</g>
	</g>
	<g opacity="0.1">
		<path d="M1316,195.3c-2.7-0.2-3.9,1.5-2.8,4l8.3,17.9c1.1,2.4,3.3,2.6,4.8,0.4l11.5-16.2c1.5-2.2,0.6-4.1-2-4.4L1316,195.3z"/>
	</g>
	<g opacity="0.1">
		<path d="M827,340.7c-1.9-3-5.8-4-8.9-2.4c0,0,0.1,0.8,0.3,1.4c0,0,0,0.1,0,0.1c0.4,1.6,1.2,3.4,2.3,5.2c1.3,2.1,2.8,3.8,4.3,4.9
			C828,347.9,828.9,343.8,827,340.7z M826.3,345.5c0.1-0.2,0.4-0.2,0.6,0c0.2,0.2,0,0.6,0,0.6c0,0,0,0.1,0,0.1
			c-0.1,0.1-0.4,0.1-0.5,0C826.1,346,826.2,345.5,826.3,345.5z M826.5,348.3c-0.2,0.2-0.4,0.2-0.5,0.1c-0.1-0.1,0-0.5,0.1-0.6
			c0.2-0.2,0.4-0.2,0.5-0.1C826.7,347.8,826.6,348.2,826.5,348.3z M827.6,345.3c-0.1,0.1-0.3,0-0.4-0.2c-0.1-0.1,0-0.5,0-0.6
			c0.1-0.1,0.3,0,0.4,0.2C827.7,344.9,827.7,345.3,827.6,345.3z M827.2,342.6c0.1-0.1,0.3,0,0.4,0.2c0.1,0.1,0.1,0.5,0,0.6
			c-0.1,0.1-0.3,0-0.4-0.2C827.1,343.1,827.1,342.6,827.2,342.6z M827,343.9c-0.2,0.1-0.4,0-0.5-0.2c-0.1-0.1-0.1-0.6,0-0.6
			c0.2-0.1,0.4,0,0.5,0.2C827.1,343.4,827,343.9,827,343.9z M826.4,340.8c0.1-0.1,0.3,0.1,0.4,0.3c0.1,0.1,0.1,0.6,0.1,0.6
			c-0.1,0.1-0.3-0.1-0.4-0.3C826.4,341.3,826.3,340.8,826.4,340.8z M826.1,341.6c0.1,0.1,0.1,0.6,0,0.7c-0.2,0.1-0.4,0-0.5-0.2
			c-0.1-0.1-0.1-0.6,0-0.7C825.7,341.3,826,341.4,826.1,341.6z M824.9,342.3c0.1,0.1,0,0.6-0.1,0.7c-0.2,0.1-0.4,0-0.6-0.2
			c-0.1-0.1,0-0.6,0.1-0.7C824.5,342,824.8,342,824.9,342.3z M823.4,338.2c0.1-0.1,0.3,0,0.4,0.1c0.1,0.2,0.1,0.4-0.1,0.5
			c-0.1,0.1-0.3,0-0.4-0.1C823.3,338.5,823.3,338.3,823.4,338.2z M820,338.5c-0.1,0.1-0.3,0.1-0.4,0.1c-0.1,0-0.2,0-0.2-0.1
			c-0.1-0.1,0-0.3,0.2-0.5c0.1-0.1,0.3-0.1,0.4-0.1c0.1,0,0.2,0,0.2,0.1C820.3,338.1,820.2,338.3,820,338.5z M821,339.9
			c-0.2,0.1-0.5,0.1-0.6-0.1c-0.1-0.1,0.1-0.6,0.2-0.7c0.2-0.1,0.5-0.1,0.6,0.1C821.3,339.3,821.1,339.8,821,339.9z M821.5,338.2
			c-0.2,0-0.4-0.1-0.4-0.3c0-0.1,0.1-0.2,0.3-0.2c0.2,0,0.4,0.1,0.4,0.3C821.9,338.1,821.7,338.2,821.5,338.2z M822,342
			c-0.2,0.1-0.5,0-0.6-0.2c-0.1-0.1,0-0.7,0.1-0.7c0.2-0.1,0.5,0,0.6,0.2C822.2,341.3,822.1,341.9,822,342z M822.5,339.1
			c-0.2,0.2-0.4,0.2-0.6,0c-0.1-0.1,0-0.6,0.1-0.6c0.2-0.1,0.4-0.2,0.5,0C822.7,338.6,822.6,339,822.5,339.1z M823.1,344.1
			c-0.2,0.1-0.5,0-0.6-0.2c-0.1-0.1,0-0.7,0.1-0.8c0.2-0.1,0.5,0,0.6,0.2C823.4,343.4,823.3,344,823.1,344.1z M823.6,341
			c-0.2,0.1-0.4,0-0.6-0.2c-0.1-0.1,0-0.6,0.1-0.7c0.2-0.1,0.4,0,0.6,0.2C823.8,340.5,823.7,341,823.6,341z M824.4,339.5
			c0.2-0.1,0.4,0,0.5,0.2c0.1,0.1,0,0.6,0,0.6c-0.2,0.1-0.4,0-0.5-0.2C824.2,340,824.3,339.5,824.4,339.5z M824.5,345.7
			c-0.2,0.1-0.5,0-0.6-0.2c-0.1-0.1,0-0.7,0.1-0.7c0.2-0.1,0.5,0,0.6,0.2C824.7,345.1,824.6,345.6,824.5,345.7z M825.3,339.8
			c-0.1-0.1-0.1-0.5,0-0.5c0.1-0.1,0.3,0,0.4,0.2c0.1,0.1,0.1,0.5,0,0.5C825.6,340.1,825.4,340,825.3,339.8z M825.3,343.8
			c0.2-0.1,0.4,0,0.6,0.2c0.1,0.1,0,0.6-0.1,0.7c-0.2,0.1-0.4,0-0.6-0.2C825.1,344.4,825.2,343.9,825.3,343.8z M825,347.3
			c-0.1-0.1,0-0.6,0.1-0.7c0.2-0.1,0.5-0.1,0.6,0.1c0.1,0.1,0,0.6-0.1,0.7C825.4,347.6,825.1,347.5,825,347.3z"/>
		<path d="M824,350.4c-1.4-1.1-2.9-2.8-4.1-4.8c-1.5-2.4-2.4-4.8-2.7-6.7c-1.4,1.1-2.3,2.6-2.6,4.3c0.3,1.4,0.9,2.9,1.8,4.4
			c0.7,1.2,1.6,2.2,2.5,3c0.2,0.1,0.3,0.1,0.5,0.2c0,0,0,0,0,0l0,0C821,351.2,822.6,351.1,824,350.4z"/>
		<path d="M800.1,376.9c-0.2,1.6,3.3,3.3,7.8,3.9c4.5,0.6,8.4-0.2,8.6-1.8c0.2-1.5-2.8-3.1-6.9-3.8l2.5-19.7l2.3-1.4
			c0.2-0.1,0.3-0.4,0.3-0.7l3.3-1.8c-1-0.9-1.9-1.9-2.7-3.2c-1-1.6-1.6-3.2-1.9-4.7l-3.5,2.4c-0.1,0-0.3,0-0.4,0l-4.3,2.7
			c-0.2,0.1-0.3,0.4-0.2,0.8l-2.2,1.5c-1.2,0.8-1.7,2.3-1,3.5l1.4,2.3c0.7,1.1,2.3,1.4,3.5,0.7l2.2-1.2c0.1,0.1,0.2,0.2,0.3,0.2
			l-2.4,18.2C803.2,374.7,800.3,375.5,800.1,376.9z"/>
	</g>
	<g opacity="0.1">
		<g>
			<circle cx="959.7" cy="208.5" r="2.5"/>
			<path d="M956.1,222c-2.8-0.7-5.7,0.9-6.4,3.7c-0.7,2.8,0.9,5.7,3.7,6.4s5.7-0.9,6.4-3.7C960.6,225.6,958.9,222.8,956.1,222z"/>
			<path d="M970.4,198.2l-15.1-4c-4.5-1.2-9.1,1.5-10.3,6l-7.4,28c-1.2,4.5,1.5,9.1,6,10.3l15.1,4c4.5,1.2,9.1-1.5,10.3-6l7.4-28
				C977.6,204,974.9,199.4,970.4,198.2z M961.1,203.2c2.9,0.8,4.7,3.8,3.9,6.7c-0.8,2.9-3.8,4.7-6.7,3.9c-2.9-0.8-4.7-3.8-3.9-6.7
				C955.1,204.2,958.1,202.4,961.1,203.2z M952.2,237c-5.5-1.4-8.7-7-7.3-12.5c1.4-5.5,7-8.7,12.5-7.3c5.5,1.4,8.7,7,7.3,12.5
				C963.2,235.2,957.6,238.4,952.2,237z"/>
		</g>
	</g>
	<g opacity="0.1">
		<g>
			<path d="M938.8,326.2c-6,2.3-9.1,9-6.8,15c2.3,6,9,9.1,15,6.8c0.1,0,0.2-0.1,0.3-0.1l-1.1-0.6c0,0-1.1-0.8-0.1-2.5
				c0.7-1.2,2.4-1,3.3-0.8l-1.9-5.2c-0.5,1.3-1.5,2.3-2.8,2.8c-2.5,0.9-5.3-0.3-6.2-2.8s0.3-5.3,2.8-6.2c2.3-0.9,4.9,0.2,6,2.4
				c0.2-0.1,0.3-0.2,0.5-0.3c0.4-0.1,0.8-0.1,1.1,0l-0.2-0.6c-0.3-0.9,0.1-1.9,1-2.3c0.9-0.3,1.8,0.1,2.2,0.9
				c0.2-0.3,0.5-0.6,0.9-0.7c0.1-0.1,0.3-0.1,0.4-0.1C950.6,326.6,944.4,324.1,938.8,326.2z M940.6,331.1c-3.3,1.2-5,4.9-3.8,8.3
				c0.1,0.2,0,0.5-0.3,0.6c-0.2,0.1-0.5,0-0.6-0.3c-1.4-3.8,0.5-8,4.3-9.5c0.2-0.1,0.5,0,0.6,0.3C941,330.8,940.8,331,940.6,331.1z
				 M939.7,328.6c-4.7,1.8-7.1,7-5.3,11.7c0.1,0.2,0,0.5-0.3,0.6c-0.2,0.1-0.5,0-0.6-0.3c-1.9-5.2,0.7-10.9,5.9-12.9
				c0.2-0.1,0.5,0,0.6,0.3S939.9,328.5,939.7,328.6z"/>
			<path d="M941.4,337.7c0.3,0.8,1.2,1.3,2.1,0.9s1.3-1.2,0.9-2.1s-1.2-1.3-2.1-0.9C941.5,335.9,941,336.9,941.4,337.7z"/>
			<path d="M955.3,335.5l-0.9-2.3c-0.1-0.4-0.5-0.6-0.9-0.7c-0.2,0-0.4,0-0.5,0.1c-0.6,0.2-0.8,0.8-0.6,1.4l1.9,5l-0.3,0.1l-0.3,0.1
				l-1.9-5l-0.4-1.1c-0.2-0.6-0.8-0.8-1.4-0.6c-0.6,0.2-0.8,0.8-0.6,1.4l0.7,1.9l1.6,4.3l0,0l-0.6,0.2l-1.6-4.3
				c-0.2-0.6-0.8-0.8-1.4-0.6c-0.2,0.1-0.4,0.2-0.5,0.4c-0.2,0.3-0.3,0.7-0.1,1l0.3,0.9l2.8,7.5l-0.7-0.3c0,0-2.5-0.9-3.2,0.3
				c-0.6,1.1-0.2,1.5-0.1,1.6l1.5,0.8l4,2.1l10.2-3.8l-4.3-11.4c-0.2-0.6-0.8-0.8-1.4-0.6s-0.8,0.8-0.6,1.4l1,2.7l-0.6,0.2l0,0
				L955.3,335.5L955.3,335.5z"/>
		</g>
	</g>
	<g opacity="0.1">
		<g>
			<path d="M959.4,84.5l-4.8-16.7c-0.3-1-1.3-1.6-2.3-1.3l-14.8,4.3c-1,0.3-1.6,1.3-1.3,2.3l4.3,14.8c-0.8,0-1.7,0.2-2.5,0.5
				c-2.9,1.2-4.3,4.3-3.2,6.9c1.1,2.6,4.3,3.7,7.2,2.4c2.8-1.2,4-4.1,3.3-6.6l-5-17.3l11.2-3.2l3,10.5c-0.8,0-1.7,0.2-2.5,0.5
				c-2.9,1.2-4.3,4.3-3.2,6.9c1.1,2.6,4.3,3.7,7.2,2.4C958.8,89.9,960.2,87.1,959.4,84.5z"/>
		</g>
	</g>
	<g opacity="0.1">
		<g>
			<path d="M1044.3,100.2l2.4-11.2l-2.5-0.5l-2.4,11.2c-1.5,0.2-2.7,1.3-3,2.9c-0.3,1.5,0.4,3,1.6,3.8l-2.4,11.2l2.5,0.5l2.4-11.2
				c1.5-0.2,2.7-1.3,3-2.9C1046.2,102.5,1045.5,101,1044.3,100.2z"/>
		</g>
		<g>
			<path d="M1057,97.3l1.2-5.8l-2.5-0.5l-1.2,5.8c-1.5,0.2-2.7,1.3-3,2.9c-0.3,1.5,0.4,3,1.6,3.8l-3.5,16.6l2.5,0.5l3.5-16.6
				c1.5-0.2,2.7-1.3,3-2.9C1058.9,99.6,1058.3,98.1,1057,97.3z"/>
		</g>
		<g>
			<path d="M1068.3,112.4c0.3-1.5-0.4-3-1.6-3.8l3.1-14.7l-2.5-0.5l-3.1,14.7c-1.5,0.2-2.7,1.3-3,2.9c-0.3,1.5,0.4,3,1.6,3.8
				l-1.7,7.7l2.5,0.5l1.7-7.7C1066.7,115.1,1068,114,1068.3,112.4z"/>
		</g>
	</g>
	<g opacity="0.1">
		<g>
			<circle cx="413.8" cy="498.5" r="2.5"/>
			<path d="M417.8,511.8c-2.8,0.8-4.3,3.8-3.5,6.5c0.8,2.8,3.8,4.3,6.5,3.5s4.3-3.8,3.5-6.5C423.5,512.6,420.6,511,417.8,511.8z"/>
			<path d="M417.6,484.1l-14.9,4.5c-4.4,1.3-7,6-5.6,10.5l8.4,27.7c1.3,4.4,6,7,10.5,5.6l14.9-4.5c4.4-1.3,7-6,5.6-10.5l-8.4-27.7
				C426.7,485.2,422.1,482.7,417.6,484.1z M412.2,493.2c2.9-0.9,6,0.8,6.9,3.7c0.9,2.9-0.8,6-3.7,6.9c-2.9,0.9-6-0.8-6.9-3.7
				C407.6,497.1,409.3,494.1,412.2,493.2z M422.3,526.6c-5.4,1.6-11.1-1.4-12.7-6.8c-1.6-5.4,1.4-11.1,6.8-12.7
				c5.4-1.6,11.1,1.4,12.7,6.8C430.8,519.3,427.7,525,422.3,526.6z"/>
		</g>
	</g>
	<g opacity="0.1">
		<g>
			<path d="M567.1,441.8l-4.8-16.7c-0.3-1-1.3-1.6-2.3-1.3l-14.8,4.3c-1,0.3-1.6,1.3-1.3,2.3l4.3,14.8c-0.8,0-1.7,0.2-2.5,0.5
				c-2.9,1.2-4.3,4.3-3.2,6.9c1.1,2.6,4.3,3.7,7.2,2.4c2.8-1.2,4-4.1,3.3-6.6l-5-17.3l11.2-3.2l3,10.5c-0.8,0-1.7,0.2-2.5,0.5
				c-2.9,1.2-4.3,4.3-3.2,6.9c1.1,2.6,4.3,3.7,7.2,2.4C566.5,447.1,567.9,444.3,567.1,441.8z"/>
		</g>
	</g>
	<g opacity="0.1">
		<g>
			<path d="M652,457.5l2.4-11.2l-2.5-0.5l-2.4,11.2c-1.5,0.2-2.7,1.3-3,2.9c-0.3,1.5,0.4,3,1.6,3.8l-2.4,11.2l2.5,0.5l2.4-11.2
				c1.5-0.2,2.7-1.3,3-2.9C653.9,459.8,653.2,458.3,652,457.5z"/>
		</g>
		<g>
			<path d="M664.7,454.5l1.2-5.8l-2.5-0.5l-1.2,5.8c-1.5,0.2-2.7,1.3-3,2.9c-0.3,1.5,0.4,3,1.6,3.8l-3.5,16.6l2.5,0.5l3.5-16.6
				c1.5-0.2,2.7-1.3,3-2.9C666.6,456.8,665.9,455.3,664.7,454.5z"/>
		</g>
		<g>
			<path d="M676,469.7c0.3-1.5-0.4-3-1.6-3.8l3.1-14.7l-2.5-0.5l-3.1,14.7c-1.5,0.2-2.7,1.3-3,2.9c-0.3,1.5,0.4,3,1.6,3.8l-1.7,7.7
				l2.5,0.5l1.7-7.7C674.4,472.3,675.6,471.2,676,469.7z"/>
		</g>
	</g>
	<g opacity="0.1">
		<path d="M1039.8,281.1c-2.7-0.2-3.9,1.5-2.8,4l8.3,17.9c1.1,2.4,3.3,2.6,4.8,0.4l11.5-16.2c1.5-2.2,0.6-4.1-2-4.4L1039.8,281.1z"
			/>
	</g>
	<g opacity="0.1">
		<path d="M1081,186.4c-1.9-3-5.8-4-8.9-2.4c0,0,0.1,0.8,0.3,1.4c0,0,0,0.1,0,0.1c0.4,1.6,1.2,3.4,2.3,5.2c1.3,2.1,2.8,3.8,4.3,4.9
			C1082,193.5,1082.9,189.5,1081,186.4z M1080.2,191.1c0.1-0.2,0.4-0.2,0.6,0c0.2,0.2,0,0.6,0,0.6c0,0,0,0.1,0,0.1
			c-0.1,0.1-0.4,0.1-0.5,0C1080.1,191.7,1080.2,191.2,1080.2,191.1z M1080.5,193.9c-0.2,0.2-0.4,0.2-0.5,0.1c-0.1-0.1,0-0.5,0.1-0.6
			c0.2-0.2,0.4-0.2,0.5-0.1C1080.7,193.4,1080.6,193.8,1080.5,193.9z M1081.6,191c-0.1,0.1-0.3,0-0.4-0.2c-0.1-0.1,0-0.5,0-0.6
			c0.1-0.1,0.3,0,0.4,0.2C1081.7,190.5,1081.7,190.9,1081.6,191z M1081.2,188.2c0.1-0.1,0.3,0,0.4,0.2c0.1,0.1,0.1,0.5,0,0.6
			c-0.1,0.1-0.3,0-0.4-0.2C1081.1,188.7,1081.1,188.3,1081.2,188.2z M1080.9,189.6c-0.2,0.1-0.4,0-0.5-0.2c-0.1-0.1-0.1-0.6,0-0.6
			c0.2-0.1,0.4,0,0.5,0.2C1081,189,1081,189.5,1080.9,189.6z M1080.4,186.4c0.1-0.1,0.3,0.1,0.4,0.3c0.1,0.1,0.1,0.6,0.1,0.6
			c-0.1,0.1-0.3-0.1-0.4-0.3C1080.4,186.9,1080.3,186.5,1080.4,186.4z M1080.1,187.2c0.1,0.1,0.1,0.6,0,0.7c-0.2,0.1-0.4,0-0.5-0.2
			c-0.1-0.1-0.1-0.6,0-0.7C1079.7,186.9,1080,187,1080.1,187.2z M1078.9,187.9c0.1,0.1,0,0.6-0.1,0.7c-0.2,0.1-0.4,0-0.6-0.2
			c-0.1-0.1,0-0.6,0.1-0.7C1078.5,187.6,1078.7,187.7,1078.9,187.9z M1077.4,183.9c0.1-0.1,0.3,0,0.4,0.1c0.1,0.2,0.1,0.4-0.1,0.5
			c-0.1,0.1-0.3,0-0.4-0.1C1077.2,184.2,1077.3,184,1077.4,183.9z M1074,184.1c-0.1,0.1-0.3,0.1-0.4,0.1c-0.1,0-0.2,0-0.2-0.1
			c-0.1-0.1,0-0.3,0.2-0.5c0.1-0.1,0.3-0.1,0.4-0.1c0.1,0,0.2,0,0.2,0.1C1074.3,183.8,1074.2,184,1074,184.1z M1075,185.5
			c-0.2,0.1-0.5,0.1-0.6-0.1c-0.1-0.1,0.1-0.6,0.2-0.7c0.2-0.1,0.5-0.1,0.6,0.1C1075.3,185,1075.1,185.5,1075,185.5z M1075.5,183.8
			c-0.2,0-0.4-0.1-0.4-0.3c0-0.1,0.1-0.2,0.3-0.2c0.2,0,0.4,0.1,0.4,0.3C1075.9,183.7,1075.7,183.8,1075.5,183.8z M1075.9,187.6
			c-0.2,0.1-0.5,0-0.6-0.2c-0.1-0.1,0-0.7,0.1-0.7c0.2-0.1,0.5,0,0.6,0.2C1076.1,187,1076.1,187.5,1075.9,187.6z M1076.5,184.7
			c-0.2,0.2-0.4,0.2-0.6,0c-0.1-0.1,0-0.6,0.1-0.6c0.2-0.1,0.4-0.2,0.6,0C1076.7,184.2,1076.6,184.7,1076.5,184.7z M1077.1,189.7
			c-0.2,0.1-0.5,0-0.6-0.2c-0.1-0.1,0-0.7,0.1-0.8c0.2-0.1,0.5-0.1,0.6,0.2C1077.3,189.1,1077.3,189.6,1077.1,189.7z M1077.6,186.7
			c-0.2,0.1-0.4,0-0.6-0.2c-0.1-0.1,0-0.6,0.1-0.7c0.2-0.1,0.4,0,0.6,0.2C1077.8,186.1,1077.7,186.6,1077.6,186.7z M1078.3,185.1
			c0.2-0.1,0.4,0,0.5,0.2c0.1,0.1,0,0.6,0,0.6c-0.2,0.1-0.4,0-0.5-0.2C1078.2,185.6,1078.2,185.2,1078.3,185.1z M1078.4,191.4
			c-0.2,0.1-0.5,0-0.6-0.2c-0.1-0.1,0-0.7,0.1-0.7c0.2-0.1,0.5,0,0.6,0.2C1078.6,190.7,1078.6,191.3,1078.4,191.4z M1079.3,185.5
			c-0.1-0.1-0.1-0.5,0-0.5c0.1-0.1,0.3,0,0.4,0.2c0.1,0.1,0.1,0.5,0,0.5C1079.6,185.8,1079.4,185.7,1079.3,185.5z M1079.3,189.5
			c0.2-0.1,0.4,0,0.6,0.2c0.1,0.1,0,0.6-0.1,0.7c-0.2,0.1-0.4,0-0.6-0.2C1079.1,190.1,1079.2,189.6,1079.3,189.5z M1079,192.9
			c-0.1-0.1,0-0.6,0.1-0.7c0.2-0.1,0.5-0.1,0.6,0.1c0.1,0.1,0,0.6-0.1,0.7C1079.4,193.2,1079.1,193.1,1079,192.9z"/>
		<path d="M1078,196.1c-1.4-1.1-2.9-2.8-4.1-4.8c-1.5-2.4-2.4-4.8-2.7-6.7c-1.4,1.1-2.3,2.6-2.6,4.3c0.3,1.4,0.9,2.9,1.8,4.4
			c0.7,1.2,1.6,2.2,2.5,3c0.2,0.1,0.3,0.1,0.5,0.2c0,0,0,0,0,0l0,0C1075,196.8,1076.5,196.7,1078,196.1z"/>
		<path d="M1054.1,222.5c-0.2,1.6,3.3,3.3,7.8,3.9c4.5,0.6,8.4-0.2,8.6-1.8c0.2-1.5-2.8-3.1-6.9-3.8l2.5-19.7l2.3-1.4
			c0.2-0.1,0.3-0.4,0.3-0.7l3.3-1.8c-1-0.9-1.9-1.9-2.7-3.2c-1-1.6-1.6-3.2-1.9-4.7l-3.5,2.4c-0.1,0-0.3,0-0.4,0l-4.3,2.7
			c-0.2,0.1-0.3,0.4-0.2,0.8l-2.2,1.5c-1.2,0.8-1.7,2.3-1,3.5l1.4,2.3c0.7,1.1,2.3,1.4,3.5,0.7l2.2-1.2c0.1,0.1,0.2,0.2,0.3,0.2
			l-2.4,18.2C1057.2,220.3,1054.3,221.1,1054.1,222.5z"/>
	</g>
	<g opacity="0.1">
		<g>
			<circle cx="1213.6" cy="54.2" r="2.5"/>
			<path d="M1210.1,67.7c-2.8-0.7-5.7,0.9-6.4,3.7c-0.7,2.8,0.9,5.7,3.7,6.4c2.8,0.7,5.7-0.9,6.4-3.7
				C1214.6,71.3,1212.9,68.4,1210.1,67.7z"/>
			<path d="M1224.4,43.9l-15.1-4c-4.5-1.2-9.1,1.5-10.3,6l-7.4,28c-1.2,4.5,1.5,9.1,6,10.3l15.1,4c4.5,1.2,9.1-1.5,10.3-6l7.4-28
				C1231.6,49.7,1228.9,45.1,1224.4,43.9z M1215,48.8c2.9,0.8,4.7,3.8,3.9,6.7c-0.8,2.9-3.8,4.7-6.7,3.9c-2.9-0.8-4.7-3.8-3.9-6.7
				C1209.1,49.8,1212.1,48.1,1215,48.8z M1206.1,82.6c-5.5-1.4-8.7-7-7.3-12.5c1.4-5.5,7-8.7,12.5-7.3c5.5,1.4,8.7,7,7.3,12.5
				C1217.2,80.8,1211.6,84.1,1206.1,82.6z"/>
		</g>
	</g>
	<g opacity="0.1">
		<g>
			<path d="M1192.8,171.9c-6,2.3-9.1,9-6.8,15c2.3,6,9,9.1,15,6.8c0.1,0,0.2-0.1,0.3-0.1l-1.1-0.6c0,0-1.1-0.8-0.1-2.5
				c0.7-1.2,2.4-1,3.3-0.8l-1.9-5.2c-0.5,1.3-1.5,2.3-2.8,2.8c-2.5,0.9-5.3-0.3-6.2-2.8c-0.9-2.5,0.3-5.3,2.8-6.2
				c2.3-0.9,4.9,0.2,6,2.4c0.2-0.1,0.3-0.2,0.5-0.3c0.4-0.1,0.8-0.1,1.1,0l-0.2-0.6c-0.3-0.9,0.1-1.9,1-2.3c0.9-0.3,1.8,0.1,2.2,0.9
				c0.2-0.3,0.5-0.6,0.9-0.7c0.1-0.1,0.3-0.1,0.4-0.1C1204.5,172.3,1198.4,169.8,1192.8,171.9z M1194.6,176.7
				c-3.3,1.2-5,4.9-3.8,8.3c0.1,0.2,0,0.5-0.3,0.6c-0.2,0.1-0.5,0-0.6-0.3c-1.4-3.8,0.5-8,4.3-9.5c0.2-0.1,0.5,0,0.6,0.3
				C1194.9,176.4,1194.8,176.7,1194.6,176.7z M1193.7,174.3c-4.7,1.8-7.1,7-5.3,11.7c0.1,0.2,0,0.5-0.3,0.6c-0.2,0.1-0.5,0-0.6-0.3
				c-1.9-5.2,0.7-10.9,5.9-12.9c0.2-0.1,0.5,0,0.6,0.3S1193.9,174.2,1193.7,174.3z"/>
			<path d="M1195.3,183.3c0.3,0.8,1.2,1.3,2.1,0.9c0.8-0.3,1.3-1.2,0.9-2.1c-0.3-0.8-1.2-1.3-2.1-0.9
				C1195.4,181.6,1195,182.5,1195.3,183.3z"/>
			<path d="M1209.2,181.1l-0.9-2.3c-0.1-0.4-0.5-0.6-0.9-0.7c-0.2,0-0.4,0-0.5,0.1c-0.6,0.2-0.8,0.8-0.6,1.4l1.9,5l-0.3,0.1
				l-0.3,0.1l-1.9-5l-0.4-1.1c-0.2-0.6-0.8-0.8-1.4-0.6c-0.6,0.2-0.8,0.8-0.6,1.4l0.7,1.9l1.6,4.3l0,0l-0.6,0.2l-1.6-4.3
				c-0.2-0.6-0.8-0.8-1.4-0.6c-0.2,0.1-0.4,0.2-0.5,0.4c-0.2,0.3-0.3,0.7-0.1,1l0.3,0.9l2.8,7.5l-0.7-0.3c0,0-2.5-0.9-3.2,0.3
				c-0.6,1.1-0.2,1.5-0.1,1.6l1.5,0.8l4,2.1l10.2-3.8l-4.3-11.4c-0.2-0.6-0.8-0.8-1.4-0.6c-0.6,0.2-0.8,0.8-0.6,1.4l1,2.7l-0.6,0.2
				l0,0L1209.2,181.1L1209.2,181.1z"/>
		</g>
	</g>
	<g opacity="0.1">
		<path d="M659.7,194.6c-6,2.3-9.1,9-6.8,15c2.3,6,9,9.1,15,6.8c0.1,0,0.2-0.1,0.3-0.1l-1.1-0.6c0,0-1.1-0.8-0.1-2.5
			c0.7-1.2,2.4-1,3.3-0.8l-1.9-5.2c-0.5,1.3-1.5,2.3-2.8,2.8c-2.5,0.9-5.3-0.3-6.2-2.8c-0.9-2.5,0.3-5.3,2.8-6.2
			c2.3-0.9,4.9,0.2,6,2.4c0.2-0.1,0.3-0.2,0.5-0.3c0.4-0.1,0.8-0.1,1.1,0l-0.2-0.6c-0.3-0.9,0.1-1.9,1-2.3c0.9-0.3,1.8,0.1,2.2,0.9
			c0.2-0.3,0.5-0.6,0.9-0.7c0.1-0.1,0.3-0.1,0.4-0.1C671.5,195,665.3,192.6,659.7,194.6z M661.5,199.5c-3.3,1.2-5,4.9-3.8,8.3
			c0.1,0.2,0,0.5-0.3,0.6c-0.2,0.1-0.5,0-0.6-0.3c-1.4-3.8,0.5-8,4.3-9.5c0.2-0.1,0.5,0,0.6,0.3
			C661.9,199.2,661.8,199.4,661.5,199.5z M660.6,197.1c-4.7,1.8-7.1,7-5.3,11.7c0.1,0.2,0,0.5-0.3,0.6c-0.2,0.1-0.5,0-0.6-0.3
			c-1.9-5.2,0.7-10.9,5.9-12.9c0.2-0.1,0.5,0,0.6,0.3C661,196.7,660.8,197,660.6,197.1z"/>
		<path d="M662.3,206.1c0.3,0.8,1.2,1.3,2.1,0.9c0.8-0.3,1.3-1.2,0.9-2.1c-0.3-0.8-1.2-1.3-2.1-0.9
			C662.4,204.4,662,205.3,662.3,206.1z"/>
		<path d="M676.2,203.9l-0.9-2.3c-0.1-0.4-0.5-0.6-0.9-0.7c-0.2,0-0.4,0-0.5,0.1c-0.6,0.2-0.8,0.8-0.6,1.4l1.9,5l-0.3,0.1l-0.3,0.1
			l-1.9-5l-0.4-1.1c-0.2-0.6-0.8-0.8-1.4-0.6c-0.6,0.2-0.8,0.8-0.6,1.4l0.7,1.9l1.6,4.3l0,0l-0.6,0.2l-1.6-4.3
			c-0.2-0.6-0.8-0.8-1.4-0.6c-0.2,0.1-0.4,0.2-0.5,0.4c-0.2,0.3-0.3,0.7-0.1,1l0.3,0.9l2.8,7.5l-0.7-0.3c0,0-2.5-0.9-3.2,0.3
			c-0.6,1.1-0.2,1.5-0.1,1.6l1.5,0.8l4,2.1l10.2-3.8l-4.3-11.4c-0.2-0.6-0.8-0.8-1.4-0.6c-0.6,0.2-0.8,0.8-0.6,1.4l1,2.7l-0.6,0.2
			l0,0L676.2,203.9L676.2,203.9z"/>
	</g>
</g>
</svg>
