<?xml version="1.0" encoding="utf-8"?>
<!-- Generator: Adobe Illustrator 18.1.1, SVG Export Plug-In . SVG Version: 6.00 Build 0)  -->
<svg version="1.1" id="Ebene_1" xmlns="http://www.w3.org/2000/svg" xmlns:xlink="http://www.w3.org/1999/xlink" x="0px" y="0px"
	 viewBox="0 0 96.7 80" enable-background="new 0 0 96.7 80" xml:space="preserve">
<g>
	<path fill="#006AB1" d="M23.8,4.5C9.9,10.2,0,24,0,40c0,8.6,2.9,16.6,7.7,23c1.1,0.2,2.2,0.3,3.5,0.3c8,0,12.7-3.6,12.7-17.2V4.5z
		 M56,5.9c-5.3-2.7-11.3-4.3-17.6-4.3c-1.8,0-3.7,0.1-5.4,0.4v44.7c0,16.6-7.3,22.9-17.5,24c6.4,4.8,14.3,7.6,22.9,7.6
		c10.7,0,20.4-4.4,27.4-11.5c-3.5,2.2-8.1,3.5-13.9,3.5c-6,0-12.6-1.9-16-4.1l2.1-6.7c3.6,2.2,8.8,4,14.4,4
		c8.3,0,13.1-4.3,13.1-10.6c0-5.8-3.3-9.3-11.8-12.4C43.5,37,37.2,31.6,37.2,22.9C37.2,13.5,44.6,6.5,56,5.9 M76.7,40
		c0-9.8-3.7-18.7-9.7-25.4c-2.3-1-5.7-2-9.9-2c-8.5,0-11.8,5.1-11.8,9.4c0,5.8,3.8,8.6,12.4,12c10.6,4.2,15.9,9.2,15.9,18.4
		c0,1.1-0.1,2.3-0.3,3.4C75.5,50.9,76.7,45.6,76.7,40"/>
	<g>
		<path fill="#006AB1" d="M66.9,80l-2.4-3.4c5.7-4.1,10.5-9.5,13.7-15.7c1.7-3.2,2.9-6.5,3.8-10c0.9-3.6,1.3-7.3,1.3-11
			c0-3.7-0.5-7.4-1.3-11c-0.9-3.5-2.1-6.8-3.8-10c-3.3-6.2-8-11.6-13.7-15.7L66.9,0c6.2,4.5,11.4,10.4,15,17.2
			c1.8,3.5,3.2,7.1,4.2,10.9c1,3.9,1.5,7.9,1.5,12c0,4-0.5,8.1-1.5,12c-0.9,3.8-2.3,7.4-4.2,10.9C78.3,69.6,73.1,75.6,66.9,80z
			 M81,79.7l-3-2.8C87.4,66.9,92.5,53.7,92.5,40c0-13.7-5.1-26.7-14.4-36.8l3-2.8c10,10.8,15.5,24.9,15.5,39.6
			C96.7,54.8,91.1,68.9,81,79.7z"/>
	</g>
</g>
</svg>
